<?xml version="1.0" encoding="UTF-8"?>
<svg width="208px" height="208px" viewBox="0 0 208 208" version="1.1" xmlns="http://www.w3.org/2000/svg" xmlns:xlink="http://www.w3.org/1999/xlink">
    <!-- Generator: Sketch 53.2 (72643) - https://sketchapp.com -->
    <title>Group</title>
    <desc>Created with Sketch.</desc>
    <defs>
        <polygon id="path-1" points="8.00318494 9.89609434 37.1411321 9.89609434 37.1411321 35.6603774 8.00318494 35.6603774"></polygon>
        <polygon id="path-3" points="0.106235142 2.13650883 44.2571785 2.13650883 44.2571785 42.4528302 0.106235142 42.4528302"></polygon>
        <polygon id="path-5" points="3.39622642 0.675481044 42.1831315 0.675481044 42.1831315 44.8264244 3.39622642 44.8264244"></polygon>
        <polygon id="path-7" points="5.94339623 10.5293121 39.3058902 10.5293121 39.3058902 33.9622642 5.94339623 33.9622642"></polygon>
        <polygon id="path-9" points="0.159415385 6.04358491 65.2684154 6.04358491 65.2684154 38.2075472 0.159415385 38.2075472"></polygon>
    </defs>
    <g id="Yoga-Fitness" stroke="none" stroke-width="1" fill="none" fill-rule="evenodd">
        <g id="Desktop" transform="translate(-437.000000, -188.000000)">
            <g id="Group" transform="translate(437.000000, 188.000000)">
                <rect id="Rectangle-Copy" fill="#FFFFFF" x="0" y="0" width="208" height="208"></rect>
                <g id="Group-34" transform="translate(25.000000, 68.000000)">
                    <g id="Group-3" transform="translate(125.000000, 60.000000)">
                        <mask id="mask-2" fill="white">
                            <use xlink:href="#path-1"></use>
                        </mask>
                        <g id="Clip-2"></g>
                        <path d="M36.6775472,33.3071321 C34.5141509,31.8501509 32.2183019,30.5697736 29.8783019,29.4218491 C27.6266038,28.8037358 25.2424528,28.8037358 22.9907547,29.4218491 L23.0349057,29.5543019 C25.9488679,29.6426038 28.7303774,30.5697736 31.1586792,32.1592075 C32.4832075,33.6603396 34.2933962,34.6316604 36.2801887,34.9848679 C36.81,34.9848679 37.2073585,34.5433585 37.1632075,34.0576981 C37.1632075,33.7486415 36.9866038,33.4837358 36.6775472,33.3071321" id="Fill-1" fill="#B86C6C" mask="url(#mask-2)"></path>
                    </g>
                    <path d="M112,60.7409302 C110.778029,59.100155 110.385252,57.20031 109.294206,55.5163565 C107.984951,53.5301549 106.76298,51.8462014 105.628292,49.7304649 C103.92626,46.5784493 101.831452,43.7286818 100.085779,40.6198445 C97.9473288,36.9065111 96.2452972,32.9341079 94.4996238,29.004883 C92.5357412,24.7302318 91.0955606,20.1965107 88.8261851,16.0945727 C84.8984199,8.79744073 78.4394281,3.18426231 70.6275395,0.334494807 C67.3544018,-0.356357921 63.9066968,0.0322467384 60.8954101,1.41395219 C57.0985704,3.14108402 56.2693755,5.38635538 54,8.66790584 L54.2182092,8.84061902 C56.5312265,5.81813834 59.8916479,3.65922356 63.6448457,2.79565765 C67.9217457,1.93209174 72.3732129,3.05472742 75.7336343,5.81813834 C79.4431904,8.40883607 82.7163281,11.6040299 85.3784801,15.2741851 C87.4296464,18.8579836 89.1753198,22.6144953 90.5718585,26.5005419 C92.317532,30.3002319 93.9322799,34.1862785 95.7215952,37.9859685 C97.1617758,40.6198445 98.7328819,43.167364 100.478555,45.5853485 C102.00602,48.0033331 103.577126,50.4644959 105.148232,52.8393021 C106.195636,54.4368991 107.7231,55.6027131 108.90143,57.1571317 C109.686983,58.4956589 110.647103,59.834186 111.694507,61 L112,60.7409302 Z" id="Fill-4" fill="#B86C6C"></path>
                    <g id="Group-8" transform="translate(108.000000, 53.000000)">
                        <mask id="mask-4" fill="white">
                            <use xlink:href="#path-3"></use>
                        </mask>
                        <g id="Clip-7"></g>
                        <path d="M35.5479623,35.7463019 C31.9717358,34.3334717 28.6162642,32.3025283 25.6581509,29.7859245 C17.9758868,23.958 10.9117358,17.2470566 4.77475472,9.78554717 L4.59815094,9.918 C9.98456604,18.1742264 16.7396604,25.4149811 24.5543774,31.2870566 C27.2475849,33.5387547 30.2056981,35.3047925 33.384566,36.6734717 C35.3272075,37.5564906 37.3581509,38.2187547 39.4332453,38.6161132 C40.7577736,38.8810189 37.8438113,36.7176226 35.5479623,35.7463019" id="Fill-6" fill="#B86C6C" mask="url(#mask-4)"></path>
                    </g>
                    <path d="M70.887125,16.0791086 C68.819125,18.8071086 68.027125,22.2391086 65.959125,25.0111086 C63.539125,28.3111086 60.855125,31.4791086 58.039125,34.4711086 C51.835125,40.2791086 46.159125,46.5711086 41.011125,53.3471086 C40.879125,53.5231086 40.923125,53.7431086 41.143125,53.8751086 C41.275125,53.9631086 41.495125,53.9191086 41.627125,53.7871086 C47.215125,47.3191086 53.991125,42.0831086 59.755125,35.8351086 C62.527125,32.9751086 64.991125,29.8951086 67.191125,26.5951086 C68.907125,23.3391086 70.227125,19.8191086 71.063125,16.2111086 L70.887125,16.0791086 Z" id="Fill-9" fill="#B86C6C"></path>
                    <path d="M51.3770457,12.3337001 C49.8810457,16.0297001 47.7690457,19.4617001 46.2730457,23.1577001 C44.8650457,26.8537001 43.2370457,30.5057001 41.4330457,34.0257001 C40.1570457,36.7537001 38.4850457,39.3057001 36.4170457,41.5497001 C33.9090457,44.1457001 31.3130457,46.4777001 28.5410457,48.8977001 C28.3650457,49.0297001 28.3650457,49.2937001 28.4970457,49.4697001 C28.6290457,49.6897001 28.8930457,49.7337001 29.0690457,49.5577001 C32.5010457,47.5777001 35.7130457,45.1577001 38.5290457,42.3857001 C40.3330457,40.3177001 41.7850457,38.0297001 42.9730457,35.5657001 C46.4930457,28.1297001 49.3970457,20.3857001 51.5970457,12.4217001 L51.3770457,12.3337001 Z" id="Fill-11" fill="#B86C6C"></path>
                    <g id="Group-15" transform="translate(2.000000, 49.000000)">
                        <mask id="mask-6" fill="white">
                            <use xlink:href="#path-5"></use>
                        </mask>
                        <g id="Clip-14"></g>
                        <path d="M26.4386038,18.488717 L28.6461509,15.7072075 C31.2069057,12.4841887 34.3416226,9.6585283 36.8140755,6.3030566 L36.5933208,6.12645283 C35.1363396,7.71588679 32.9729434,8.68720755 31.3835094,10.2324906 C30.0589811,11.424566 28.7786038,12.7490943 27.5865283,14.1619245 C26.1736981,15.9721132 24.8491698,17.8706038 23.5687925,19.8132453 C23.0389811,20.3430566 22.5533208,20.9170189 22.1118113,21.4468302 C21.4053962,22.3298491 20.787283,23.124566 20.1250189,24.0075849 C19.5952075,23.6543774 19.0653962,23.2570189 18.5797358,22.8155094 C17.9174717,22.374 17.2110566,22.0207925 16.4604906,21.7558868 C15.9306792,21.4909811 15.312566,21.3143774 14.6503019,21.3143774 C14.2970943,21.3585283 13.767283,21.579283 13.3257736,21.6675849 C14.2529434,16.899283 16.0189811,12.3075849 18.5797358,8.15739623 C20.4340755,6.03815094 22.4208679,4.00720755 24.4959623,2.06456604 L24.3635094,1.88796226 C20.7431321,3.87475472 17.6084151,6.56796226 15.0918113,9.87928302 C13.9438868,12.0426792 13.1491698,14.3826792 12.6635094,16.7668302 C12.4427547,17.8706038 12.1778491,18.9302264 11.9129434,20.034 L11.0740755,22.9479623 C10.1469057,27.0098491 8.51332075,30.983434 6.26162264,34.5596604 C4.23067925,37.4294717 2.68539623,38.2241887 3.74501887,41.5796604 C3.78916981,41.7562642 4.00992453,41.888717 4.1865283,41.8004151 C4.31898113,41.7562642 4.36313208,41.6679623 4.40728302,41.5796604 C5.24615094,38.4449434 7.89520755,36.2373962 9.39633962,33.4117358 C10.7208679,30.6302264 11.7363396,27.7162642 12.4869057,24.714 L13.1491698,22.2856981 L13.5465283,22.4181509 C13.8555849,22.4623019 14.1646415,22.5064528 14.5178491,22.5064528 C15.0918113,22.6830566 15.6216226,22.9479623 16.107283,23.2570189 C16.7695472,23.6543774 17.3435094,24.0958868 17.9174717,24.6698491 C18.2265283,24.9347547 18.6238868,25.2879623 18.9770943,25.5528679 C18.3148302,26.4358868 17.696717,27.2747547 16.9903019,28.1136226 C15.1359623,30.3653208 10.0144528,36.6347547 11.427283,39.8136226 C11.8246415,40.7407925 13.016717,40.343434 13.2816226,39.6370189 L13.8555849,38.5332453 C15.2242642,39.6370189 16.7253962,40.4758868 18.3589811,41.094 C20.7431321,42.3743774 23.4804906,42.8158868 26.1295472,42.3743774 C27.3657736,43.0807925 28.7786038,43.4781509 30.191434,43.6106038 C30.8095472,43.6547547 31.3393585,43.2573962 31.3835094,42.639283 C31.4276604,42.0653208 31.0303019,41.5355094 30.4563396,41.4913585 C28.1604906,40.8290943 25.9087925,39.7694717 23.8778491,38.4449434 C22.1559623,37.6502264 20.5665283,36.4581509 19.1978491,35.1336226 C19.0653962,34.9570189 18.7563396,35.0894717 18.8446415,35.3102264 C19.8159623,37.2528679 21.2287925,38.9747547 22.9065283,40.299283 C23.7453962,40.9173962 24.5842642,41.4913585 25.511434,42.0211698 C24.5401132,41.7121132 23.4804906,41.2706038 22.5974717,40.9615472 C21.6703019,40.6966415 20.787283,40.299283 19.9484151,39.8136226 C18.8446415,39.1955094 17.696717,38.6215472 16.6370943,37.9151321 C16.0189811,37.4736226 15.4008679,36.9438113 14.8710566,36.3698491 C16.5046415,33.1909811 18.2706792,30.144566 20.2574717,27.1864528 C22.2442642,24.2283396 24.3635094,21.3585283 26.4386038,18.488717" id="Fill-13" fill="#B86C6C" mask="url(#mask-6)"></path>
                    </g>
                    <g id="Group-18" transform="translate(0.000000, 61.000000)">
                        <mask id="mask-8" fill="white">
                            <use xlink:href="#path-7"></use>
                        </mask>
                        <g id="Clip-17"></g>
                        <path d="M27.930566,31.9092453 C24.8841509,32.1741509 21.749434,31.9975472 18.7030189,32.0416981 C14.5086792,32.6598113 10.2701887,32.3507547 6.20830189,31.2469811 L6.12,31.379434 C9.16641509,34.2492453 14.1996226,33.5869811 18.0849057,33.675283 C21.1313208,33.719434 25.9437736,34.7790566 28.2396226,32.5273585 C28.5045283,32.2624528 28.1954717,31.9092453 27.930566,31.9092453" id="Fill-16" fill="#B86C6C" mask="url(#mask-8)"></path>
                    </g>
                    <path d="M76.4053085,43.4 C75.1362984,41.0397351 74.392396,38.4609272 74.1736011,35.794702 C73.9985653,32.6039735 74.9612626,27.8834437 73.035868,24.9986755 C76.7991392,23.7748344 79.7747489,20.8463576 81,17.1311258 L80.8249641,17 C76.8866571,22.6821192 69.2288379,22.7258278 64.2403156,26.9655629 C64.0215208,27.1403974 63.9777618,27.4900662 64.1527977,27.7523179 C64.2840746,27.9271523 64.5466284,27.9708609 64.7654232,27.9271523 L66.9533716,27.1403974 C64.3278336,32.0357616 61.3959828,36.7125828 58.0703013,41.1271523 C55.794835,44.0993377 53.3005739,46.8092715 50.5875179,49.3006623 C48.0057389,51.4860927 45.205165,53.7589404 42.7984218,56.1629139 C38.2474892,60.7523179 33.8715925,65.4728477 29.4519369,70.1933775 C25.6011478,73.8649007 22.4067432,78.192053 20,82.9562914 L20.1312769,83 C23.5882353,78.410596 27.4390244,74.0834437 31.7274032,70.1496689 C36.2345768,65.0794702 41.0043042,60.2715232 46.0365854,55.7695364 C48.5746055,53.7152318 51.0688666,51.5735099 53.4756098,49.4317881 C55.838594,46.984106 58.0703013,44.3615894 60.0832138,41.6516556 C63.6714491,36.8 66.9096126,31.6423841 69.6664275,26.2662252 C70.454089,26.0039735 71.1979914,25.7417219 71.9856528,25.4357616 C71.723099,29.8503311 71.8106169,34.3523179 72.3357245,38.810596 C72.7295552,40.6900662 73.5172166,42.4821192 74.5674319,44.0993377 C75.6176471,46.0662252 76.7991392,47.9456954 78.1119082,49.781457 C78.2431851,50 78.5494978,50.0437086 78.7245337,49.8688742 C78.9433286,49.781457 78.9870875,49.4754967 78.8120516,49.3006623 C77.7618364,47.6397351 77.3680057,45.192053 76.4053085,43.4" id="Fill-19" fill="#B86C6C"></path>
                    <path d="M98.02,57.7138983 C96.04,55.7338983 92.476,56.7898983 89.968,56.5698983 C86.404,56.1298983 82.972,54.9418983 79.892,53.0498983 L79.716,53.2258983 C82.884,60.1338983 91.42,58.3738983 97.492,58.9458983 C97.888,58.9898983 98.24,58.6818983 98.284,58.3298983 C98.284,58.0658983 98.196,57.8458983 98.02,57.7138983" id="Fill-21" fill="#B86C6C"></path>
                    <g id="Group-25" transform="translate(90.000000, 57.000000)">
                        <mask id="mask-10" fill="white">
                            <use xlink:href="#path-9"></use>
                        </mask>
                        <g id="Clip-24"></g>
                        <path d="M18.5074154,17.8760377 C17.5834154,21.3198113 12.8754154,21.584717 9.31141538,20.7458491 C10.2354154,20.4809434 11.0274154,19.995283 11.7314154,19.3330189 C12.6554154,18.45 13.4474154,17.4345283 14.1074154,16.3307547 C14.5914154,15.5360377 14.8994154,14.6971698 15.0754154,13.77 C16.0874154,15.1386792 17.2314154,16.4190566 18.5074154,17.5228302 L18.5074154,17.8760377 Z M65.1034154,37.3024528 C62.4634154,37.0816981 59.8674154,36.5960377 57.4034154,35.8013208 C54.8954154,35.2715094 52.4314154,35.1390566 49.9234154,34.5209434 C45.0834154,33.6379245 40.5074154,31.4303774 36.8554154,28.0307547 C33.1594154,24.4986792 29.0674154,21.4522642 24.7114154,18.8473585 C19.0794154,15.8450943 14.2834154,11.43 10.8074154,6.04358491 L10.6314154,6.13188679 C11.6434154,8.33943396 12.8314154,10.4586792 14.1074154,12.4896226 C13.7994154,13.1077358 13.5354154,13.77 13.1834154,14.3881132 C12.7874154,15.1386792 12.2154154,15.8009434 11.7314154,16.5515094 C10.6754154,18.45 8.69541538,19.6420755 6.53941538,19.7303774 L5.74741538,19.244717 C4.55941538,18.0084906 3.63541538,16.5515094 2.97541538,14.9620755 C3.41541538,14.8296226 3.85541538,14.7854717 4.29541538,14.8296226 C4.69141538,14.8296226 4.99941538,14.4764151 4.99941538,14.0790566 C4.99941538,13.6816981 4.69141538,13.3284906 4.29541538,13.3284906 C3.63541538,13.3726415 2.97541538,13.6375472 2.44741538,14.0349057 C2.18341538,13.6816981 1.96341538,13.3284906 1.65541538,13.0635849 L1.47941538,13.1960377 C1.78741538,13.5050943 1.96341538,13.9024528 2.09541538,14.2998113 L1.87541538,14.4764151 C1.56741538,14.7854717 1.30341538,15.0503774 1.03941538,15.359434 C0.775415385,15.6684906 0.423415385,15.7126415 0.159415385,16.0216981 L0.291415385,16.1983019 C0.863415385,15.7126415 1.47941538,15.315283 2.18341538,15.1386792 L2.31541538,15.1386792 C2.35941538,16.7722642 2.75541538,18.4058491 3.50341538,19.8628302 C5.13141538,21.7613208 7.41941538,22.9975472 9.83941538,23.3066038 C13.2714154,23.880566 18.9034154,22.9975472 20.3994154,18.9798113 L21.1034154,19.4213208 C23.8754154,21.2756604 26.9114154,22.6001887 29.6394154,24.6311321 C31.9714154,26.3971698 33.9074154,28.604717 36.1514154,30.3266038 C41.4314154,33.6379245 47.3714154,35.8896226 53.5754154,36.8167925 C57.3154154,37.8322642 61.2314154,38.1854717 65.1034154,37.8322642 C65.3234154,37.8322642 65.3234154,37.3024528 65.1034154,37.3024528 L65.1034154,37.3024528 Z" id="Fill-23" fill="#B86C6C" mask="url(#mask-10)"></path>
                    </g>
                    <path d="M97.8847536,61.2338177 C95.5087536,59.3418177 88.7327536,60.2218177 87.8967536,63.6978177 L88.1167536,63.7418177 C88.4687536,62.4658177 91.9887536,62.2458177 93.0007536,62.1578177 C94.4527536,62.2898177 95.9927536,62.3778177 97.4447536,62.3338177 C97.7087536,62.3778177 97.9727536,62.2458177 98.0607536,62.0258177 L98.0607536,61.9378177 C98.1487536,61.6738177 98.1047536,61.4098177 97.8847536,61.2338177" id="Fill-26" fill="#B86C6C"></path>
                    <path d="M88.7454384,67.3074105 C88.6134384,66.8234105 87.9534384,66.9114105 87.7774384,67.3074105 C87.6454384,67.5274105 87.4694384,67.7474105 87.2934384,67.9674105 C87.0734384,68.2314105 87.1614384,68.6714105 87.4254384,68.8914105 C87.5574384,68.9794105 87.7334384,69.0234105 87.9094384,69.0234105 C88.5694384,68.8474105 88.9654384,68.1434105 88.7894384,67.4394105 C88.7894384,67.3954105 88.7454384,67.3514105 88.7454384,67.3074105" id="Fill-28" fill="#B86C6C"></path>
                    <path d="M91.9018245,27.9317054 C87.3698245,27.9317054 82.9258245,29.1197054 79.0538245,31.4077054 C75.6658245,33.3437054 72.1018245,35.7197054 73.5098245,39.8557054 C73.6418245,40.3397054 74.3898245,39.8997054 73.9938245,39.5037054 L73.8178245,39.3717054 L73.6858245,39.3717054 C75.0498245,38.0517054 75.7538245,36.4677054 77.2058245,35.2357054 C78.5698245,34.2237054 80.0658245,33.3437054 81.6498245,32.6397054 C84.7298245,31.0557054 88.1618245,30.1757054 91.6378245,30.0437054 C92.9578245,30.0877054 93.3098245,28.0197054 91.9018245,27.9317054" id="Fill-30" fill="#B86C6C"></path>
                    <path d="M96.2646751,35.0677101 C95.6046751,35.2877101 95.1206751,35.1117101 94.4606751,35.2877101 C93.2726751,35.8597101 92.2166751,36.6517101 91.4686751,37.7077101 C88.7846751,40.0837101 86.8486751,43.2077101 85.8806751,46.6397101 C84.5166751,52.2277101 87.5526751,57.8597101 93.8886751,56.8037101 C94.2406751,56.7597101 94.3726751,56.2317101 93.9766751,56.0997101 C91.9966751,55.6597101 90.1486751,54.6477101 88.6966751,53.1957101 C86.5846751,50.4677101 87.9926751,46.0677101 89.3566751,43.2957101 C90.6326751,41.0517101 92.2606751,38.9837101 94.1526751,37.2237101 C94.9446751,36.6517101 95.7366751,35.9917101 96.4406751,35.2877101 L96.2646751,35.0677101 Z" id="Fill-32" fill="#B86C6C"></path>
                </g>
            </g>
        </g>
    </g>
</svg>