<?xml version="1.0" encoding="UTF-8"?>
<svg width="208px" height="208px" viewBox="0 0 208 208" version="1.1" xmlns="http://www.w3.org/2000/svg" xmlns:xlink="http://www.w3.org/1999/xlink">
    <!-- Generator: Sketch 53.2 (72643) - https://sketchapp.com -->
    <title>Group 2</title>
    <desc>Created with Sketch.</desc>
    <g id="Yoga-Fitness" stroke="none" stroke-width="1" fill="none" fill-rule="evenodd">
        <g id="Desktop" transform="translate(-184.000000, -188.000000)">
            <g id="Group-2" transform="translate(184.000000, 188.000000)">
                <rect id="Rectangle-Copy" fill="#FFFFFF" x="0" y="0" width="208" height="208"></rect>
                <g id="noun_virabhadrasana-yoga-pose_1985832_000000" transform="translate(0.000000, 20.000000)" fill="#498490" fill-rule="nonzero">
                    <path d="M34.752344,40.6334943 C28.7423789,40.3896203 22.7232164,40.7205515 16.773864,41.6219443 L16.773864,41.7364243 C22.7297445,42.6683646 28.7894269,42.6799783 34.748704,41.7708743 C35.349304,41.6712343 35.418984,40.6679443 34.752344,40.6334943 Z" id="Path"></path>
                    <path d="M92.4359083,40.9198785 C83.5789448,40.2584385 74.4801014,40.5960485 65.5950486,40.5488785 C57.0090945,40.5011785 48.5490219,40.6267885 40,41.3332785 L40.021327,41.5055285 C44.4948037,41.3714385 49.0286202,41.9072685 53.5031372,42.0042585 C58.0567203,42.1028385 62.6097832,42.1595485 67.1638864,42.2120185 C75.5282474,42.3090085 84.0897534,42.7579185 92.4327873,42.2793285 C92.7592549,42.2249953 92.9992243,41.9379949 92.9999981,41.6009517 C93.0007719,41.2639084 92.7621228,40.9757673 92.4359083,40.9198785 L92.4359083,40.9198785 Z" id="Path"></path>
                    <path d="M83.325978,49.975365 C78.4967568,48.987445 73.8177734,47.761025 69.0280884,46.600325 C64.6847929,45.7495353 60.2483813,45.4822002 55.8351053,45.805325 C50.8976705,46.0252282 45.9543202,45.5344314 41.1550319,44.347825 C39.0479375,43.780257 36.8809104,43.4679913 34.7000801,43.417675 C32.1461929,43.6421962 29.5810574,43.7098085 27.0189774,43.620135 L27,43.763765 C31.9841098,44.208009 36.929956,45.0123301 41.7992092,46.170495 C45.8815973,47.2872608 50.1091981,47.7731753 54.336945,47.611565 C59.8421877,47.2320695 65.3728295,47.6952693 70.7397445,48.985325 C74.7916236,50.4375364 79.0259244,51.3117033 83.3191251,51.582325 C84.281701,51.576495 84.1683637,50.147615 83.325978,49.975365 Z" id="Path"></path>
                    <path d="M176.619618,46.3207823 C166.882794,46.1494498 157.155744,47.0337159 147.603339,48.9585923 C142.63137,49.3637337 137.683729,50.0336907 132.780803,50.9657023 C128.039775,51.4198701 123.393611,52.6004629 119,54.4674123 L119.091764,54.7000823 C121.573795,54.0474511 124.122957,53.6950343 126.6863,53.6501523 C129.193654,53.3734923 131.671811,52.7820123 134.154139,52.3331023 C138.874263,51.4798023 143.591259,50.9434423 148.366651,50.5454123 C153.068138,50.2134481 157.738783,49.5260811 162.339846,48.4890123 C167.072187,47.8015416 171.839413,47.3904703 176.618054,47.2578223 C176.839315,47.2152335 176.999617,47.0188726 176.999999,46.7899597 C177.000381,46.5610469 176.840736,46.364134 176.619618,46.3207823 L176.619618,46.3207823 Z" id="Path"></path>
                    <path d="M102.996093,35.4363475 C101.586893,35.6843875 100.725253,36.9293575 99.3898929,37.4466375 C97.2279434,38.2624227 94.9189422,38.5939493 92.6200129,38.4186575 L92.5934929,38.5204175 C93.8324035,38.9592728 95.1224273,39.2306495 96.4305729,39.3276075 C96.3265729,39.8517775 96.3146129,40.3923775 96.2288129,40.9218475 C96.0959873,41.6043286 95.7976219,42.2420524 95.3609329,42.7768475 C95.2342575,42.9531488 95.2358371,43.1932109 95.3648212,43.3677646 C95.4938053,43.5423183 95.7197438,43.6101557 95.9209729,43.5347475 C97.3860546,42.6999627 98.0492926,40.911781 97.4924129,39.2979275 C97.9499561,39.2607734 98.4037179,39.185258 98.8490929,39.0721475 C99.6838758,38.8931623 100.48478,38.5778077 101.220813,38.1382875 C102.045013,37.5950375 102.481813,36.7194775 103.265453,36.1179275 C103.395047,36.012064 103.441271,35.8321546 103.379219,35.6751392 C103.317166,35.5181238 103.161498,35.4211003 102.996093,35.4363475 L102.996093,35.4363475 Z" id="Path"></path>
                    <path d="M91.2240223,43.952738 L90.9962623,43.952738 C89.7161353,46.9001153 88.0924478,49.6796561 86.1602623,52.231338 C86.4660066,50.3980744 86.630655,48.5432526 86.6527023,46.683828 C86.6437716,46.5862821 86.5645265,46.5110472 86.4684288,46.5088797 C86.3723312,46.5067121 86.2898982,46.5783003 86.2767423,46.675348 C86.1732623,47.6800822 85.9818332,48.6733716 85.7047423,49.643348 C85.5327594,49.0760894 85.2149663,48.566077 84.7843423,48.166238 C84.1717823,47.619808 83.4547023,47.783048 82.8369423,47.318238 L82.6960223,47.503208 C83.5788579,48.3668791 84.2028094,49.4683969 84.4952223,50.679498 C84.6221023,51.482448 84.6943823,52.308188 84.7552223,53.134458 L84.5066623,54.395858 C84.3171596,56.1710925 84.3587735,57.9640721 84.6304223,59.728188 C85.20239,64.6496076 85.3473384,69.6128571 85.0635823,74.560238 C85.0235423,75.134758 85.8347423,75.221148 86.0084223,74.711288 C87.1657361,70.5060736 87.4007895,66.0927797 86.6969023,61.784588 C86.4686223,59.904678 86.0578223,58.062398 85.9413423,56.187788 C86.8510872,54.073894 88.0179269,52.0849368 89.4144223,50.267688 C90.8859666,48.5288835 91.546032,46.2254574 91.2240223,43.952738 Z" id="Path"></path>
                    <path d="M115.978026,58.0321565 C116.116866,57.7199865 115.654586,57.4348465 115.458026,57.7247565 C114.688946,58.8674365 113.983306,59.9380365 113.373346,61.0542165 C113.004146,59.9677165 111.969346,59.2601665 111.224706,58.1975165 C109.849169,54.870231 109.546883,51.1834296 110.361506,47.6695965 C110.370632,47.5471052 110.284341,47.4386596 110.164866,47.4224702 C110.045391,47.4062808 109.934298,47.4879799 109.911706,47.6086465 C108.917735,50.6465312 108.526386,53.8555468 108.760426,57.0490065 C109.241426,59.3529165 111.334946,60.5729765 112.400426,62.5546465 L112.556426,62.7422665 C112.250993,63.454994 111.996738,64.1893849 111.795666,64.9396465 C111.17845,67.6921947 110.795694,70.4939443 110.651666,73.3136465 C110.158203,76.0410146 110.077185,78.8292942 110.411426,81.5816465 C110.602662,82.56817 111.043238,83.4867291 111.689586,84.2464865 C109.851906,87.3135965 104.861986,87.9204465 101.687906,88.5718165 C96.5293304,89.5715733 91.2614684,89.8529223 86.0286264,89.4081565 L85.9963864,89.6567265 C89.2519229,90.5398241 92.5940608,91.0494879 95.9606264,91.1762365 C99.1910338,92.2252387 102.493461,93.028103 105.840626,93.5781965 C105.963553,93.5911657 106.077531,93.5112489 106.109599,93.3896031 C106.141667,93.2679573 106.082337,93.140579 105.969586,93.0890065 C104.242509,92.0782775 102.413263,91.2608595 100.513746,90.6510065 C101.746666,90.4299965 102.972306,90.1628765 104.184426,89.8809165 C106.229586,89.4039165 112.009386,88.3052265 112.899626,85.5259065 L113.909986,86.5604665 C114.264626,86.9468365 115.023826,86.6341365 114.769026,86.0696865 C113.701517,84.4873931 112.844708,82.767731 112.221026,80.9557165 C111.985652,78.1086474 112.135075,75.2421182 112.665106,72.4364965 C112.964862,67.4790368 114.084959,62.6089332 115.978026,58.0321565 L115.978026,58.0321565 Z" id="Path"></path>
                    <path d="M85.0025396,83.8721529 C81.4565815,85.8612803 77.6300711,87.2793674 73.6587396,88.0761129 C68.8879915,90.0396247 64.2401385,92.300095 59.7414596,94.8447429 C56.9584196,96.3250329 48.7486596,98.3957429 50.1651396,103.242593 L50.4911796,103.200193 C51.0480996,99.9942229 54.9111796,99.0131929 57.4154996,98.0273929 C60.6873396,96.7426729 63.6705796,94.8961529 66.8363396,93.3501429 C70.0948923,91.7244841 73.4617277,90.3347429 76.9118596,89.1912329 C79.4330701,89.0852507 81.9347131,89.6840171 84.1460996,90.9227429 L84.3260196,90.6868929 C83.3078915,89.6128165 82.1092636,88.7332655 80.7868996,88.0898929 C82.9456994,87.8371366 84.8605469,86.5599932 85.9520596,84.6448929 C86.0563765,84.3800376 85.9779875,84.0767997 85.7591692,83.8987206 C85.5403508,83.7206415 85.2328632,83.7098446 85.0025396,83.8721529 L85.0025396,83.8721529 Z" id="Path"></path>
                    <path d="M50.8824275,134.50172 C50.0301475,126.7192 49.3884675,115.03959 48.6823075,107.25972 L48.3822675,107.25972 C47.7683186,114.878828 47.7667533,122.536352 48.3775875,130.15572 C49.3657829,135.056909 49.5170677,140.095111 48.8247875,145.04872 C48.0828914,145.962047 47.1461231,146.690597 46.0859475,147.17879 C44.320803,148.195057 42.436144,148.978663 40.4772275,149.51079 L40.5053075,149.74028 C42.9876528,149.577699 45.4215326,148.964393 47.6922275,147.92927 L47.2881875,148.64954 C47.1710146,148.819476 47.1892786,149.050388 47.3316469,149.198998 C47.4740152,149.347609 47.7000697,149.371728 47.8695475,149.25639 C52.9530675,146.34139 51.4195875,139.40634 50.8824275,134.50172 Z" id="Path"></path>
                    <path d="M116.585833,114.260421 C115.617891,113.878054 114.690132,113.400487 113.816155,112.834721 C112.896101,112.119751 112.103481,111.254791 111.205635,110.513321 C109.297317,108.937101 107.160044,107.691601 105.116361,106.312541 C108.459991,107.608037 111.968633,108.426227 115.539405,108.743121 C115.824215,108.771218 116.087474,108.58859 116.161564,108.311515 C116.235655,108.03444 116.09881,107.744324 115.838158,107.625881 C113.29618,106.568634 110.670999,105.724801 107.989678,105.103081 C105.72127,104.347831 103.534821,103.360441 101.281219,102.559081 C95.7090785,100.583771 89.9656178,99.1416411 84.3797296,97.2400011 L84.2840229,97.4716111 C87.5956868,98.9450111 90.8629344,100.460811 94.1650806,101.911951 C88.7456364,102.591913 83.3810823,103.655992 78.1117327,105.096191 L76.7454003,105.262611 L75.6751771,104.993901 C74.3393749,104.485105 73.0723097,103.810834 71.9034864,102.986791 C69.6094791,101.623275 67.5584503,99.8857661 65.8348345,97.8457911 L65.5794403,98.0424211 C67.2550428,100.629259 69.3282034,102.934249 71.7221195,104.872001 L72.6120334,105.474081 C67.8986037,105.028852 63.1597027,106.001243 59,108.267181 L59.0930629,108.434131 C65.4492685,107.316026 71.9021897,106.846697 78.3528502,107.033341 C85.0472754,105.336147 91.8874896,104.280587 98.7812112,103.880901 L100.939107,104.740031 L103.949903,105.890131 C106.435105,108.133621 108.834118,110.592291 111.246879,112.921111 C112.478376,114.110961 114.670642,116.492781 116.580546,115.540371 C116.834281,115.429841 116.998848,115.179431 116.999994,114.902126 C117.00114,114.624821 116.838647,114.373053 116.585833,114.260421 Z" id="Path"></path>
                    <path d="M58.3579335,110.17344 L58.0490535,110.25453 C59.4930734,118.018679 58.997198,126.028347 56.6070935,133.54591 C55.9334349,136.132833 55.5415889,138.787555 55.4386535,141.46199 C55.4906535,144.73156 57.7396535,147.52042 57.1395735,150.78469 L57.4515735,150.82656 C57.5811938,147.732767 57.4245012,144.633408 56.9835735,141.56958 C57.3652075,138.468382 57.9983068,135.404747 58.8763735,132.41012 C62.4123735,116.61347 59.4561735,112.91884 58.3579335,110.17344 Z" id="Path"></path>
                    <path d="M53.4565031,150.55782 C50.6569643,150.161285 47.8133157,150.221935 45.0325031,150.73749 C41.3925031,151.41907 37.7228631,151.16149 34.0761031,151.7111 L34.0761031,151.93105 C37.7507042,152.69904 41.518468,152.893473 45.2503831,152.50769 C47.1613083,152.191096 49.100335,152.087135 51.0333031,152.19764 C51.9744248,152.394331 52.9528829,152.162002 53.7118231,151.56164 C53.8852013,151.422666 53.9614533,151.192286 53.906102,150.974666 C53.8507507,150.757046 53.6742889,150.593439 53.4565031,150.55782 Z" id="Path"></path>
                    <path d="M131.2188,108.841292 C131.12642,108.717637 130.983189,108.644396 130.830708,108.642842 C130.678226,108.641288 130.533586,108.711595 130.4388,108.833342 C129.076877,110.485082 127.189575,111.597489 125.10568,111.976772 C122.996375,112.767246 120.831075,113.392865 118.62856,113.848202 C118.36856,113.897492 118.32592,114.345342 118.62856,114.354882 C120.67476,114.416892 133.92956,113.241882 131.2188,108.841292 Z" id="Path"></path>
                    <path d="M158.978152,134.947992 C155.893394,129.616485 152.267367,124.619685 148.157992,120.037407 C143.737992,115.77903 138.688792,112.230556 134.160112,108.091192 C129.095832,103.461682 124.521392,98.0825962 119.907432,93 L119.647432,93.1931355 C122.999579,98.1067738 126.602978,102.842849 130.443152,107.382333 C134.435192,111.506037 139.015352,114.946981 143.385432,118.640046 C147.764018,122.530992 151.544047,127.051789 154.602352,132.055135 C158.512898,137.016104 161.52428,142.628485 163.499032,148.636081 C163.533269,148.845369 163.71309,148.999222 163.924372,148.999997 C164.135654,149.000773 164.316591,148.848244 164.352352,148.639213 C164.376047,143.55257 162.452112,138.651187 158.978152,134.947992 L158.978152,134.947992 Z" id="Path"></path>
                    <path d="M153.374099,137.684419 C150.853139,134.882839 148.306179,132.149099 145.563699,129.567999 C139.856169,124.037816 133.129135,119.71638 125.771979,116.853829 L125.667979,117.103459 C128.55068,118.760802 131.292471,120.660748 133.864739,122.783469 C136.701939,124.633157 139.43326,126.646366 142.045379,128.813279 C144.664099,131.201989 147.240699,133.645819 149.651419,136.253949 C151.617539,138.380839 154.700099,140.870779 155.380259,143.779949 C155.462939,144.134519 156.039099,144.338039 156.168579,143.885949 C156.912699,141.314389 154.964779,139.452499 153.374099,137.684419 Z" id="Path"></path>
                    <path d="M155.50067,147.126366 L155.33011,146.948816 C154.358481,147.701238 153.505217,148.600401 152.79979,149.615246 C152.10767,150.798736 152.63651,152.156066 154.12631,152.044766 C154.375167,152.015953 154.58844,151.850276 154.68167,151.613346 C154.763347,151.414509 154.748318,151.188068 154.64111,151.002256 C154.41543,150.609526 154.10291,150.796086 153.82211,150.593626 L153.79403,150.578256 L153.79403,150.510946 L153.95315,149.880246 C154.344787,148.895359 154.865347,147.968998 155.50067,147.126366 L155.50067,147.126366 Z" id="Path"></path>
                    <path d="M164.269325,149.583217 L163.719165,149.577387 L163.496085,149.714657 L162.953725,149.745927 L160.993845,149.898037 C160.057845,149.965347 158.357445,150.570607 157.477085,150.156147 L157.333565,150.403657 C158.954405,151.931117 162.041645,151.328507 164.019205,151.183817 C164.421472,151.126138 164.706059,150.753237 164.661925,150.341647 C164.675351,150.035054 164.525202,149.744993 164.269325,149.583217 Z" id="Path"></path>
                    <path d="M95.4022634,67.7425766 C94.0708793,70.2762319 92.4850476,72.6621815 90.6702634,74.8620666 C89.6583434,76.1102166 87.3121034,77.5968666 87.6111034,79.4370266 L87.7587834,79.5541566 C89.9214634,79.3596466 91.7243034,76.8167066 92.9421434,75.2081566 C94.585078,73.0903348 95.7636836,70.6382742 96.3985834,68.0171166 C96.5462634,67.3933066 95.6565434,67.2480866 95.4022634,67.7425766 Z" id="Path"></path>
                    <path d="M106.813945,82.9465629 C103.592656,84.4391428 100.11254,85.264606 96.5756651,85.3750229 L96.5756651,85.6140529 C100.182385,86.0444129 104.758385,87.0848029 107.339665,83.6599429 C107.595505,83.3233929 107.228385,82.7165429 106.813945,82.9465629 Z" id="Path"></path>
                    <path d="M121.159037,47.8682258 C119.445778,48.1004387 117.791624,48.6632661 116.285077,49.5265958 C114.946479,50.1810554 114.165005,51.6312949 114.341317,53.1337758 L114.585197,53.1337758 C114.616397,51.9778458 117.112917,51.0227858 117.965197,50.6279358 C119.1892,50.0913111 120.371291,49.4603735 121.501197,48.7406058 C121.667802,48.6059376 121.727882,48.3757512 121.648952,48.1745082 C121.570021,47.9732652 121.370812,47.8487247 121.159037,47.8682258 L121.159037,47.8682258 Z" id="Path"></path>
                    <path d="M119.616482,94.9555645 C118.147482,94.5633645 117.260362,92.9155945 116.072162,91.9918045 C114.944802,91.1157145 113.539762,90.5883645 112.462322,89.6719945 L112.236122,89.8453045 C112.874511,91.4065993 113.93621,92.7501441 115.296842,93.7185445 C116.485016,94.7595994 118.000748,95.3306765 119.567602,95.3276245 C119.664356,95.333865 119.749361,95.2627587 119.762227,95.1648211 C119.775094,95.0668835 119.711438,94.9754882 119.616482,94.9555645 L119.616482,94.9555645 Z" id="Path"></path>
                    <path d="M189.036432,43.3709473 C185.832003,42.7164715 182.556415,42.4992107 179.295792,42.7248773 C175.977517,42.6555943 172.657961,42.763686 169.350792,43.0487073 C169.129816,43.0787221 168.96449,43.2703755 168.963572,43.4975899 C168.962654,43.7248043 169.126426,43.9178389 169.347152,43.9497073 C172.653415,44.235405 175.972123,44.3438512 179.289552,44.2745973 C182.551637,44.5009396 185.828767,44.2843938 189.034872,43.6306473 L189.036432,43.3709473 Z" id="Path"></path>
                    <path d="M166.766733,42.537325 C157.373043,41.7939648 147.931694,41.9378588 138.564194,42.967155 C133.81037,43.226855 129.075333,43.061495 124.318378,43.059905 C120.53974,42.4813118 116.683546,42.7160555 113,43.748905 L113.068359,44.017615 C117.203035,44.0213261 121.333462,44.2868411 125.435605,44.812615 C129.891988,44.958895 134.329064,44.999175 138.78336,44.751665 C143.378549,44.496205 147.963301,44.102415 152.562142,43.910025 C157.306974,43.8776653 162.047173,43.602068 166.764646,43.084285 C166.899054,43.0657813 166.999472,42.9494885 166.999998,42.8117274 C167.000524,42.6739662 166.900996,42.5568863 166.766733,42.537325 L166.766733,42.537325 Z" id="Path"></path>
                    <path d="M186.278719,46.7182079 C186.015599,46.6053179 185.664079,46.7839279 185.406159,46.8305679 C184.826388,46.9156223 184.241999,46.963945 183.656359,46.9752579 C182.393957,47.0203724 181.135453,47.1442712 179.887919,47.3462579 C179.701416,47.3762034 179.563778,47.5396373 179.563002,47.7320694 C179.562227,47.9245016 179.698543,48.0890822 179.884799,48.1205879 C181.467735,48.4230041 183.095696,48.3785594 184.660479,47.9902079 C184.763959,47.9631779 187.048839,47.0483979 186.278719,46.7182079 Z" id="Path"></path>
                    <path d="M111.977532,25.8393215 C111.64405,22.9318279 109.907532,20.3863349 107.349532,19.0553215 C104.232968,17.9492451 100.832946,18.0027526 97.7513721,19.2063715 C94.1066921,20.7433715 93.9434121,23.6758615 93.7816921,27.2226215 L93.9538121,27.2697915 C94.9355721,23.8523515 95.8590921,20.9882315 99.7715721,20.2822715 C102.439133,19.6047245 105.260226,19.9998708 107.649572,21.3857315 C109.751682,23.6265111 110.716816,26.7333858 110.263092,29.7989515 C110.066532,32.1044515 108.812292,34.1714515 108.455572,36.4610515 C108.408252,36.7642115 108.808652,36.8320515 108.935532,36.5919615 C110.158254,34.9184056 111.176456,33.0993043 111.967652,31.1748315 C112.298504,29.4126289 112.301856,27.6027844 111.977532,25.8393215 L111.977532,25.8393215 Z" id="Path"></path>
                    <path d="M111.481676,41.6692269 C111.166036,41.3565269 110.937756,40.9876469 110.594556,40.6828969 C110.144651,40.3345834 109.763089,39.9030717 109.469796,39.4108969 C109.073556,38.6455769 109.357996,37.3332969 108.567076,36.8350969 L108.370516,36.8880969 C107.807058,37.9648937 107.748254,39.242785 108.210356,40.3686069 L108.368956,40.6336069 C108.066341,43.172915 106.851885,45.5080648 104.959836,47.1886469 C101.626636,49.6595069 97.071956,48.5851969 96.743836,44.0086469 L96.499956,44.0086469 C96.1506017,45.8038778 96.6702199,47.6607704 97.896156,48.9980669 C99.435906,50.1741535 101.451987,50.4841133 103.263596,49.8232769 C106.698732,48.5821769 109.05702,45.3477963 109.232156,41.6374269 L109.508276,41.8584369 C110.017196,42.1933176 110.62064,42.3468933 111.224276,42.2951569 C111.376427,42.3103846 111.520543,42.2227328 111.579641,42.0790223 C111.638739,41.9353118 111.59901,41.7691222 111.481676,41.6692269 L111.481676,41.6692269 Z" id="Path"></path>
                    <path d="M107.888625,28.00403 C107.601003,27.3001372 106.813985,26.9598226 106.117505,27.23818 L105.882465,27.3251 C106.166905,26.12677 105.017705,24.91466 104.125905,24.19439 C102.297139,22.8944546 100.240348,21.964765 98.0673851,21.45588 L97.9659851,21.70551 C99.7103092,22.3100099 101.317208,23.2666255 102.690705,24.51822 C103.203873,25.0249389 103.674554,25.5745217 104.097825,26.16122 C104.479505,26.72143 104.657865,27.37704 105.026025,27.9452 L105.065545,27.97965 L104.398385,28.9045 L104.470665,28.97976 C104.849225,28.63632 106.720705,28.12858 107.107585,28.64003 C107.529825,29.19812 106.978105,30.54803 106.719145,31.06266 C106.319788,31.8794982 105.781991,32.6180065 105.130545,33.24414 L105.295385,33.54412 C105.827016,33.309612 106.317028,32.9872804 106.745665,32.59012 C107.104393,32.1603052 107.390005,31.6723233 107.590665,31.1464 C108.051508,30.1678305 108.15708,29.0544369 107.888625,28.00403 Z" id="Path"></path>
                    <path d="M99.0781265,27.3725923 C98.7853155,26.6911299 98.2973998,26.1156896 97.6782865,25.7216423 C96.9441021,25.4604071 96.1569641,25.392943 95.3902865,25.5255423 C95.0434465,25.5785423 94.7517265,26.0677323 95.0377265,26.3687723 C95.5208065,26.8765123 96.1078865,26.7821723 96.7537265,26.8415323 C97.4966517,26.9146295 98.2147297,27.1532845 98.8571265,27.5406023 L99.0781265,27.3725923 Z" id="Path"></path>
                    <path d="M97.48746,28.2814338 C96.73554,27.6258238 95.50054,28.3874338 94.64254,27.9464738 L94.51254,28.0773838 C94.7524355,28.5375789 95.1951048,28.8518479 95.70178,28.9216738 C96.2881226,29.1399174 96.9388514,29.0852929 97.48226,28.7722138 L97.48746,28.2814338 Z" id="Path"></path>
                    <path d="M92.9056386,32.1820201 C92.7749926,31.8955878 92.566107,31.6536111 92.3039986,31.4850701 L92.1791986,31.3790701 L92.3180386,30.9550701 C92.7189793,30.1692741 92.8563292,29.2712455 92.7090786,28.3983501 L92.3518386,28.3453501 C91.997645,28.9141983 91.6934749,29.5138415 91.4428786,30.1372801 C91.1806036,30.5575591 91.0448422,31.046929 91.0523586,31.5449601 C91.1740386,32.3463201 91.9930386,32.5143301 92.6362786,32.6478901 C92.9082386,32.7056601 93.0148386,32.3797101 92.9056386,32.1820201 Z" id="Path"></path>
                    <path d="M95.06964,34.1180113 C94.8604336,34.1177977 94.6516436,34.0989999 94.44564,34.0618313 C94.234,34.0538813 94.02236,34.0650113 93.81072,34.0560013 C93.4590409,34.0072142 93.1013505,34.0768155 92.79204,34.2542213 L92.85236,34.7200913 C93.2527004,34.896169 93.6871781,34.9768324 94.12272,34.9559413 C94.5375438,34.9606739 94.9337915,34.7808976 95.20796,34.4635713 L95.06964,34.1180113 Z" id="Path"></path>
                </g>
            </g>
        </g>
    </g>
</svg>