<?xml version="1.0" encoding="UTF-8"?>
<svg width="208px" height="208px" viewBox="0 0 208 208" version="1.1" xmlns="http://www.w3.org/2000/svg" xmlns:xlink="http://www.w3.org/1999/xlink">
    <!-- Generator: Sketch 53.2 (72643) - https://sketchapp.com -->
    <title>Group 4</title>
    <desc>Created with Sketch.</desc>
    <defs>
        <polygon id="path-1" points="8.5 6.64592426 33.3499969 6.64592426 33.3499969 36.5 8.5 36.5"></polygon>
        <polygon id="path-3" points="0.243660377 0.545599049 78.2196736 0.545599049 78.2196736 41.5 0.243660377 41.5"></polygon>
        <polygon id="path-5" points="5.5 9.90985304 37.1043513 9.90985304 37.1043513 33.5 5.5 33.5"></polygon>
        <polygon id="path-7" points="0.189055708 10.7997797 41.6890557 10.7997797 41.6890557 32.5 0.189055708 32.5"></polygon>
        <polygon id="path-9" points="0.697831117 9.06612627 42.151 9.06612627 42.151 33.5 0.697831117 33.5"></polygon>
        <polygon id="path-11" points="0.980076372 7.32145205 41.151 7.32145205 41.151 34.5 0.980076372 34.5"></polygon>
        <polygon id="path-13" points="4.8929025 0.0710442905 37.151 0.0710442905 37.151 41.5710443 4.8929025 41.5710443"></polygon>
        <polygon id="path-15" points="6.26783968 0.562822268 36.151 0.562822268 36.151 42.0628223 6.26783968 42.0628223"></polygon>
        <polygon id="path-17" points="4.15459598 0.545155975 38.151 0.545155975 38.151 42.045156 4.15459598 42.045156"></polygon>
        <polygon id="path-19" points="6.27387517 0.4906 36.151 0.4906 36.151 41.9906 6.27387517 41.9906"></polygon>
        <polygon id="path-21" points="7.35457623 0.591782692 34.151 0.591782692 34.151 42.0917827 7.35457623 42.0917827"></polygon>
    </defs>
    <g id="Yoga-Fitness" stroke="none" stroke-width="1" fill="none" fill-rule="evenodd">
        <g id="Desktop" transform="translate(-683.000000, -188.000000)">
            <g id="Group-4" transform="translate(683.000000, 188.000000)">
                <rect id="Rectangle-Copy" fill="#FFFFFF" x="0" y="0" width="208" height="208"></rect>
                <g id="Group-44" transform="translate(20.000000, 68.000000)">
                    <g id="Group-3" transform="translate(0.000000, 55.000000)">
                        <mask id="mask-2" fill="white">
                            <use xlink:href="#path-1"></use>
                        </mask>
                        <g id="Clip-2"></g>
                        <path d="M16.35595,34.97695 C14.98645,34.64495 13.24345,34.60345 12.57945,33.15095 C12.16445,31.69845 12.08145,30.24595 12.24745,28.79345 C12.24745,27.05045 11.87395,25.39045 11.16845,23.77195 C10.25545,22.31945 9.67445,20.70095 9.42545,18.99945 C9.46695,18.83345 9.34245,18.70895 9.21795,18.70895 C9.13495,18.66745 9.01045,18.70895 8.96895,18.79195 C7.84845,20.32745 8.96895,22.15345 9.67445,23.68895 C10.54595,25.55645 10.96095,27.63145 10.87795,29.74795 C10.58745,31.36645 10.91945,33.02645 11.74945,34.43745 C12.91145,35.72395 14.57145,36.26345 16.23145,36.05595 C16.56345,36.01445 16.77095,35.72395 16.68795,35.43345 C16.68795,35.22595 16.52195,35.05995 16.35595,34.97695" id="Fill-1" fill="#5DC53A" mask="url(#mask-2)"></path>
                    </g>
                    <g id="Group-6" transform="translate(16.000000, 50.000000)">
                        <mask id="mask-4" fill="white">
                            <use xlink:href="#path-3"></use>
                        </mask>
                        <g id="Clip-5"></g>
                        <path d="M77.0583333,4.5567 C65.6833333,8.9557 54.0583333,12.6907 42.225,15.6787 C36.3916667,17.2557 30.5583333,18.9157 24.725,20.5342 C21.8083333,21.3227 18.8916667,22.1527 15.975,22.8997 C15.0583333,23.1487 14.1,23.3977 13.1416667,23.6882 L12.6833333,22.9412 C12.4333333,22.5677 12.1833333,22.1112 11.975,21.6547 C11.5166667,20.7832 11.1833333,19.8702 10.975,18.9157 C10.9333333,18.5422 10.3916667,18.6252 10.3916667,18.9987 C10.3916667,20.0777 10.6,21.1152 10.9333333,22.1112 C11.1833333,22.7752 11.5166667,23.4392 11.975,24.0202 C10.6833333,24.4352 9.39166667,24.8087 8.14166667,25.3482 C5.55833333,26.1782 3.26666667,27.8797 1.64166667,30.0377 C0.1,32.4447 -0.191666667,35.3912 0.891666667,38.0057 C0.933333333,38.0887 1.1,38.1302 1.225,38.0887 C1.30833333,38.0472 1.35,37.9642 1.35,37.8397 C0.808333333,35.2667 1.43333333,32.6107 2.975,30.4527 C3.30833333,30.0377 3.68333333,29.6227 4.05833333,29.2907 C3.89166667,30.3697 3.39166667,31.4072 3.14166667,32.4862 C2.93333333,33.1502 2.85,33.8142 2.80833333,34.5197 C2.76666667,35.3082 2.975,36.0967 2.975,36.8852 C2.975,37.0097 3.05833333,37.0927 3.14166667,37.0927 C3.26666667,37.0927 3.30833333,37.0097 3.35,36.9267 C3.475,36.1382 3.68333333,35.3497 3.93333333,34.6027 C4.14166667,33.7727 4.35,32.9842 4.6,32.1957 C5.05833333,30.9922 5.30833333,29.6227 5.26666667,28.3362 C6.35,27.6307 7.51666667,27.0497 8.68333333,26.5517 C11.225,25.5557 13.85,24.8087 16.4333333,23.9372 C19.2666667,22.9827 22.1416667,22.1527 24.975,21.3642 C30.6416667,19.8287 36.35,18.5007 42.0583333,17.0897 C47.6833333,15.6787 53.35,14.1017 58.9333333,12.4417 C65.2666667,10.5742 71.5583333,8.4992 77.725,6.0922 C78.725,5.6772 78.0583333,4.1417 77.0583333,4.5567" id="Fill-4" fill="#5DC53A" mask="url(#mask-4)"></path>
                    </g>
                    <path d="M117.378556,31.0588242 C111.161811,34.9001084 103.985433,36.9877629 96.6421628,37.071269 C93.2625896,36.4449727 89.8412933,36.0691949 86.3782739,35.9856887 C83.4159319,36.3197134 80.5787594,37.4887999 78.2839875,39.4094421 C76.9488474,40.4532693 75.822323,41.7476151 74.9044143,43.2089732 C74.4037368,44.044035 73.9865055,44.962603 73.5275511,45.8394178 C69.8141929,48.3446032 66.6432354,51.6013442 62.7629847,53.856011 C60.8437209,54.9415913 58.7992877,55.8184062 56.6714083,56.4029495 C54.5018057,57.112752 52.2487569,57.6972953 49.9957081,58.1565792 C47.7426594,58.6576163 45.4478874,58.7828756 43.1531155,59.0333941 C40.9417898,59.3256657 38.7721873,59.910209 36.7277541,60.7452708 C34.6415978,61.6638388 32.6388878,62.6659129 30.6361778,63.7514932 C28.5082983,64.9205797 26.3804189,66.0061601 24.2525395,67.1752466 C21.9160445,68.4278393 19.6212725,69.8056912 17.2847775,71.0165308 C16.11653,71.6010741 14.8648362,71.8933457 13.6131424,71.8933457 C12.4031718,71.9350988 11.2349243,72.1021111 10.1083999,72.519642 C9.98323048,72.5613951 9.98323048,72.6866544 10.0249536,72.7701606 C10.0666767,72.8536667 10.150123,72.8954198 10.2335692,72.8954198 C11.4018168,72.7701606 12.5700643,72.7701606 13.7800349,72.978926 C14.8231131,73.0624322 15.8661912,72.8954198 16.8258231,72.519642 C17.8271781,72.1021111 18.8285332,71.6010741 19.7881651,71.0582839 L23.0425689,69.3464072 C27.2566046,67.1334935 31.4706403,64.8788266 35.8098454,62.9164314 C37.8542785,61.9561104 39.982158,61.2463079 42.1934836,60.7870239 C44.5299787,60.369493 46.94992,60.2442337 49.286415,59.7431966 C51.4977407,59.2421596 53.7507895,58.6576163 55.9621151,58.03132 C58.0899946,57.4885298 60.217874,56.7369742 62.220584,55.8184062 C64.4319097,54.6075666 66.5597891,53.2297147 68.520776,51.6430973 C70.2731473,50.3069984 72.1089648,49.0126526 73.7778899,47.5512945 C73.6944436,48.0523316 73.819613,48.5951217 74.153398,48.9708996 L74.4037368,48.9708996 C74.7792449,48.6786279 74.7792449,48.2193439 74.8626911,47.801813 C75.0295836,47.2590229 75.1964761,46.7162327 75.4050918,46.2151956 C75.6554305,45.5053931 75.9892155,44.8373437 76.4064468,44.1275412 C76.9488474,43.2507263 77.6581406,42.3739114 78.4091568,41.6223558 C80.5370363,39.5764544 83.2907626,38.1986025 86.2113814,37.7393185 C88.5895995,37.5723061 90.9678177,37.7810716 93.2625896,38.3238617 C93.5546515,38.6996395 93.8049903,39.0336643 94.0136059,39.4511951 C94.3056678,39.9522322 94.5977297,40.4950224 94.8480684,40.9960595 C95.3487459,42.0816398 95.8077003,43.1672201 96.2249316,44.2528004 C97.0593941,46.6744796 97.9355797,49.0126526 98.8952116,51.3508257 C98.9369347,51.517838 99.1038272,51.5595911 99.2289966,51.4760849 C99.354166,51.4343318 99.3958891,51.3090726 99.3958891,51.2255664 C98.8117654,48.3863563 98.1024722,45.5888993 97.2262866,42.8749485 C96.7673322,41.5806027 96.2666547,40.32801 95.6408078,39.1589235 L95.3487459,38.6161334 L96.5169934,38.6578864 C99.9800129,38.6161334 103.443032,38.0315901 106.739159,36.9042567 C110.577687,35.651664 114.291045,33.9815404 117.754064,31.935639 C118.254742,31.6433674 117.920957,30.7665525 117.378556,31.0588242" id="Fill-7" fill="#5DC53A"></path>
                    <g id="Group-11" transform="translate(3.000000, 58.000000)">
                        <mask id="mask-6" fill="white">
                            <use xlink:href="#path-5"></use>
                        </mask>
                        <g id="Clip-10"></g>
                        <path d="M17.8338,28.93915 C17.3358,29.43715 16.6303,29.64465 15.9248,29.47865 C15.5928,29.43715 15.3023,29.68615 15.2608,30.01815 C15.2608,30.10115 15.2608,30.18415 15.3023,30.30865 C15.7173,31.18015 14.8873,31.63665 14.2233,32.09315 C13.9328,32.25915 14.2233,32.63265 14.4723,32.54965 C15.2193,32.34215 15.9248,32.34215 16.3813,31.59515 C16.5473,31.34615 16.6718,30.97265 16.6303,30.59915 C17.5018,30.64065 18.2903,30.10115 18.5808,29.31265 C18.6638,29.10515 18.5393,28.85615 18.3318,28.77315 C18.1243,28.73165 17.9583,28.77315 17.8338,28.93915" id="Fill-9" fill="#5DC53A" mask="url(#mask-6)"></path>
                    </g>
                    <path d="M138.180507,23.8407633 C136.794507,24.7837633 135.324507,25.5627633 133.770507,26.3007633 C132.048507,26.7107633 130.242507,26.8747633 128.436507,26.6697633 C126.756507,26.5467633 125.076507,26.7107633 123.396507,27.1617633 C122.640507,27.3667633 121.842507,27.7357633 121.170507,28.1457633 L120.162507,28.8017633 C119.826507,29.0477633 119.490507,29.4167633 119.112507,29.7037633 C118.860507,29.8267633 119.112507,30.2367633 119.406507,30.1137633 C120.120507,29.7447633 121.002507,29.4987633 121.758507,29.1707633 C122.598507,28.8427633 123.438507,28.5557633 124.320507,28.3097633 C124.992507,28.1867633 125.622507,28.1047633 126.294507,28.1047633 C129.528507,28.7607633 133.224507,29.5807633 134.232507,33.0247633 C134.274507,33.1477633 134.400507,33.2297633 134.568507,33.2297633 C134.694507,33.1887633 134.778507,33.0657633 134.778507,32.9427633 C134.568507,30.9337633 133.350507,29.1297633 131.544507,28.1867633 L131.166507,28.0227633 C133.980507,27.6947633 136.626507,26.5467633 138.810507,24.7837633 C139.272507,24.4147633 138.768507,23.5127633 138.180507,23.8407633" id="Fill-12" fill="#5DC53A"></path>
                    <path d="M140.919749,34.0086356 C139.071749,34.2991103 137.307749,34.9215563 135.753749,35.9174699 C134.955749,36.4984195 134.325749,37.2453546 133.905749,38.0752826 C133.737749,37.1208654 133.527749,36.1664483 133.317749,35.2120311 C133.275749,35.0460455 133.149749,34.9630527 133.023749,34.9630527 C132.855749,35.0045491 132.771749,35.1705347 132.771749,35.2950239 C132.939749,37.2038582 132.981749,39.1126926 132.855749,40.9800305 C132.813749,42.7643756 132.687749,44.5487208 132.477749,46.2915695 C132.141749,49.9017562 131.637749,53.5534393 131.259749,57.1636259 C131.007749,58.9479711 130.839749,60.7323162 130.797749,62.5166614 C130.797749,64.3010065 130.923749,66.126848 130.755749,67.9111932 C130.461749,71.5628762 129.915749,75.1730629 129.537749,78.7832496 C129.285749,80.8165731 128.949749,82.891393 128.781749,84.9247166 C128.613749,85.7546445 128.781749,86.5015797 129.201749,87.2070185 C129.537749,87.8294645 130.293749,88.1199393 131.007749,87.9539537 C131.301749,87.9124573 131.469749,87.6219825 131.427749,87.3315077 C131.385749,87.1240257 131.217749,86.9165437 130.965749,86.9165437 C130.041749,86.7920545 130.083749,85.7546445 130.167749,85.0907022 C130.251749,84.1777814 130.377749,83.306357 130.461749,82.4349327 L131.133749,77.2478828 C131.469749,73.8036818 132.057749,70.4009771 132.225749,66.956776 C132.267749,65.2969201 132.099749,63.6370641 132.183749,61.9357118 C132.225749,60.2343594 132.477749,58.5745035 132.687749,56.8731512 C133.065749,53.5119429 133.527749,50.1092382 133.905749,46.7065335 C134.073749,44.7562028 134.199749,42.805872 134.157749,40.8555413 L134.157749,40.5235701 C134.661749,39.0711962 135.585749,37.7848078 136.803749,36.8718871 C138.189749,35.9589663 139.617749,35.2120311 141.087749,34.5895851 C141.423749,34.4650959 141.297749,33.9256428 140.919749,34.0086356" id="Fill-14" fill="#5DC53A"></path>
                    <path d="M136.582682,35 L136.498682,35.1257155 C136.162682,35.4190516 135.826682,35.7123878 135.490682,35.9219136 L135.406682,37.8914563 C135.364682,39.6933783 135.238682,41.4533952 135.028682,43.2553173 C134.692682,46.9010665 134.188682,50.5468157 133.810682,54.192565 C133.558682,55.994487 133.390682,57.7964091 133.348682,59.5983311 C133.348682,61.4421583 133.474682,63.2440804 133.306682,65.0879076 C133.012682,68.775562 132.466682,72.4213112 132.088682,76.0251553 C131.836682,78.1204135 131.500682,80.1737665 131.332682,82.2690247 C131.206682,83.0233176 131.332682,83.8614209 131.752682,84.5738087 C132.172682,85.160481 133.852682,85.0347655 134.566682,84.8252397 C135.154682,84.6995242 134.146682,84.3223777 133.558682,84.2385674 C132.634682,84.1128519 132.634682,83.0652228 132.718682,82.4366454 C132.802682,81.5147318 132.928682,80.6347233 133.054682,79.7128097 L133.684682,74.4746642 C134.020682,71.0384408 134.608682,67.6022174 134.776682,64.1240888 C134.818682,62.4478823 134.650682,60.7297705 134.734682,59.053564 C134.776682,57.3354523 135.028682,55.6173406 135.238682,53.941134 C135.658682,50.5049106 136.078682,47.1105923 136.456682,43.6743689 C136.750682,40.7829126 136.792682,37.8914563 136.582682,35" id="Fill-16" fill="#5DC53A"></path>
                    <path d="M127.672896,91.3843243 C127.294896,90.7569375 127.084896,90.045899 127.084896,89.2930347 C127.042896,88.4983447 126.916896,87.7036546 126.790896,86.9089646 C126.580896,85.1941071 126.370896,83.5210754 126.160896,81.8062179 C125.782896,78.3346772 125.656896,74.8631364 125.740896,71.3915956 C125.908896,64.5739915 126.496896,57.7563874 126.412896,50.8969575 C126.370896,47.0489846 125.992896,43.2846633 125.656896,39.4366904 C125.614896,39.1857356 125.152896,39.1857356 125.152896,39.4785162 L125.152896,42.1553669 C124.396896,41.8207605 123.598896,41.4861542 122.884896,41.0260705 C121.960896,40.524161 121.162896,39.8967741 120.406896,39.1439098 C118.978896,37.7636587 117.928896,36.0488012 117.214896,34.1666406 C117.130896,33.87386 116.626896,33.9993374 116.668896,34.2921179 C117.046896,36.4670591 118.054896,38.3910456 119.608896,39.9804257 C120.364896,40.7332899 121.246896,41.4443284 122.170896,41.9880637 C123.136896,42.4899732 124.144896,42.8245795 125.152896,43.0337085 C125.152896,45.3759529 125.110896,47.7181972 125.110896,50.0604416 L125.068896,52.2353828 C123.976896,51.9426023 122.884896,51.4825185 121.792896,50.9387832 C120.658896,50.3950479 119.734896,49.4330547 119.188896,48.2201067 C119.104896,47.969152 118.684896,48.0946294 118.726896,48.3455841 C118.852896,48.972971 119.062896,49.6003579 119.356896,50.2277448 C118.432896,50.185919 117.592896,50.185919 116.710896,50.185919 C116.458896,47.7181972 115.912896,45.2923013 114.946896,42.9500569 C114.526896,41.8207605 114.064896,40.7332899 113.476896,39.6039935 L112.678896,38.0146134 C112.384896,37.4290524 112.174896,36.7598397 111.880896,36.1742786 C111.796896,36.0488012 111.628896,36.0069754 111.502896,36.0488012 C111.418896,36.090627 111.376896,36.1742786 111.334896,36.2579302 C111.292896,37.4290524 111.628896,38.6001745 112.216896,39.6039935 C112.762896,40.7332899 113.182896,41.8625863 113.602896,42.9918827 C114.358896,45.3759529 114.904896,47.8018488 115.240896,50.2695706 L114.232896,50.3532222 C112.174896,50.5623511 110.116896,50.8133059 108.100896,51.1479122 C106.042896,51.4825185 104.068896,51.9007765 102.094896,52.4445118 C101.170896,52.6954665 100.288896,53.0300729 99.3648956,53.2810276 C98.3568956,53.6156339 97.3908956,53.9084145 96.3828956,54.2848466 C96.2988956,54.2848466 96.2568956,54.410324 96.2988956,54.4939756 C96.3408956,54.5776272 96.4248956,54.619453 96.5088956,54.5776272 C97.5168956,54.410324 98.5248956,54.201195 99.5328956,53.9920661 C100.498896,53.8247629 101.422896,53.7829371 102.388896,53.6156339 C104.404896,53.2810276 106.378896,52.9464213 108.352896,52.6536407 C110.284896,52.3608602 112.216896,52.1099054 114.190896,51.9007765 C115.198896,51.8171249 116.248896,51.7752991 117.256896,51.6498217 C118.138896,51.4825185 119.062896,51.3152154 119.944896,51.189738 C120.196896,51.4825185 120.448896,51.7752991 120.784896,52.0262538 C122.002896,52.9882471 123.514896,53.5319824 125.068896,53.6992855 C125.068896,56.0415299 124.984896,58.3419485 124.858896,60.6841928 C124.228896,67.7109259 124.186896,74.737659 124.690896,81.7643921 C124.900896,83.7302044 125.110896,85.6960166 125.404896,87.6618288 C125.404896,89.2512089 126.034896,90.7987632 127.168896,91.9280596 C127.504896,92.1790144 127.840896,91.7189307 127.672896,91.3843243" id="Fill-18" fill="#5DC53A"></path>
                    <g id="Group-22" transform="translate(115.000000, 59.000000)">
                        <mask id="mask-8" fill="white">
                            <use xlink:href="#path-7"></use>
                        </mask>
                        <g id="Clip-21"></g>
                        <path d="M27.95785,30.8981 C25.59235,30.5246 23.22685,30.4831 20.86135,30.7736 C19.61635,30.8981 18.41285,31.0226 17.16785,31.1886 L15.34185,31.3961 L14.51185,31.5206 C14.17985,31.6036 14.01385,31.7696 13.68185,31.8111 C13.39135,31.8941 13.34985,32.3091 13.68185,32.3506 C14.05535,32.3921 14.26285,32.5166 14.59485,32.5166 L15.50785,32.4751 L17.20935,32.3506 C18.49585,32.2676 19.78235,32.1431 21.02735,32.0186 C22.23085,31.8941 23.47585,31.8526 24.67935,31.8526 C25.79985,32.0601 27.00335,32.0601 28.12385,31.8526 C28.66335,31.7281 28.41435,30.9811 27.95785,30.8981" id="Fill-20" fill="#5DC53A" mask="url(#mask-8)"></path>
                    </g>
                    <g id="Group-25" transform="translate(116.000000, 58.000000)">
                        <mask id="mask-10" fill="white">
                            <use xlink:href="#path-9"></use>
                        </mask>
                        <g id="Clip-24"></g>
                        <path d="M26.6715,30.4788 C25.8,30.0638 24.97,29.6903 24.0985,29.4413 C23.3515,29.0263 22.5215,28.6528 21.6915,28.3623 C20.737,28.2793 19.8655,28.3208 18.9525,28.5698 C18.0395,28.6528 17.085,28.8603 16.172,29.1093 C15.9645,29.1923 16.0475,29.5243 16.255,29.5243 C18.081,29.3168 19.99,29.3998 21.816,29.6903 C23.227,30.5618 24.804,31.1013 26.464,31.3088 C26.713,31.2673 26.879,31.0183 26.8375,30.7693 C26.796,30.6448 26.7545,30.5203 26.6715,30.4788" id="Fill-23" fill="#5DC53A" mask="url(#mask-10)"></path>
                    </g>
                    <g id="Group-28" transform="translate(117.000000, 57.000000)">
                        <mask id="mask-12" fill="white">
                            <use xlink:href="#path-11"></use>
                        </mask>
                        <g id="Clip-27"></g>
                        <path d="M26.92895,28.7232 C26.09895,28.3082 25.26895,27.9762 24.39745,27.6857 C23.65045,27.2707 22.77895,26.8972 21.94895,26.6482 C21.03595,26.5237 20.12295,26.6067 19.20995,26.8142 C18.29695,26.9387 17.38395,27.1047 16.47095,27.3952 C16.22195,27.4367 16.30495,27.7687 16.51245,27.8102 C18.37995,27.5612 20.24745,27.6442 22.07345,27.9762 C23.52595,28.8477 25.10295,29.3872 26.72145,29.5532 C27.01195,29.5117 27.17795,29.2627 27.13645,29.0137 C27.09495,28.8892 27.05345,28.8062 26.92895,28.7232" id="Fill-26" fill="#5DC53A" mask="url(#mask-12)"></path>
                    </g>
                    <g id="Group-31" transform="translate(121.000000, 0.000000)">
                        <mask id="mask-14" fill="white">
                            <use xlink:href="#path-13"></use>
                        </mask>
                        <g id="Clip-30"></g>
                        <path d="M34.4784,18.26495 C32.2789,15.56745 28.9589,13.94895 25.4729,13.90745 C24.9334,12.57945 23.7299,11.54195 22.3189,11.16845 C20.4099,10.71195 18.4179,11.16845 16.8824,12.37195 C15.3884,13.45095 14.4339,15.11095 14.1849,16.93695 C14.1019,17.76695 14.1434,18.63845 14.3509,19.50995 C14.4754,20.38145 14.8904,21.21145 15.5544,21.79245 C16.1769,22.16595 17.2559,21.75095 17.0484,20.87945 C16.8824,20.25695 16.4674,19.71745 16.3014,19.09495 C15.8034,17.26895 16.3429,15.35995 17.7539,14.07345 C18.8329,13.07745 20.2439,12.53795 21.6964,12.62095 C22.7339,12.74545 23.6469,13.24345 24.3524,14.03195 C23.5224,14.19795 22.7754,14.52995 22.0284,14.94495 C20.7419,15.77495 19.7044,16.93695 18.9574,18.26495 C18.0444,19.63445 17.4634,21.12845 17.2144,22.70545 C17.1729,22.91295 17.3389,23.12045 17.5464,23.16195 C17.7124,23.16195 17.8784,23.07895 17.9199,22.91295 C18.3764,21.75095 18.9574,20.63045 19.6214,19.55145 C20.2854,18.59695 21.0739,17.72545 21.9039,16.93695 C23.4809,15.60895 25.5974,15.15245 27.5894,15.69195 C29.7059,16.18995 31.6149,17.35195 33.0674,18.92895 C33.2334,19.46845 33.3579,20.00795 33.3994,20.63045 C33.5239,21.33595 33.3164,22.04145 32.7769,22.58095 C31.4489,23.45245 29.7474,23.65995 28.2949,23.03745 C26.6349,22.49795 24.9334,22.16595 23.2319,22.08295 C21.5304,22.08295 19.9119,22.53945 18.5009,23.41095 C18.1689,23.61845 18.4179,24.19945 18.7499,23.99195 C20.6589,23.12045 22.7754,23.03745 24.7259,23.74295 C26.5934,24.48995 28.5439,24.98795 30.5774,25.15395 C32.4034,25.19545 34.1049,24.15795 34.9349,22.45645 L35.1009,21.95845 L35.5159,23.20345 C36.2629,25.40295 36.4289,29.05495 33.7729,30.21695 C33.6484,30.25845 33.6069,30.38295 33.6484,30.50745 C33.6899,30.63195 33.8144,30.67345 33.9389,30.63195 C39.0434,28.39095 37.1344,21.50195 34.4784,18.26495" id="Fill-29" fill="#5DC53A" mask="url(#mask-14)"></path>
                    </g>
                    <g id="Group-34" transform="translate(122.000000, 7.000000)">
                        <mask id="mask-16" fill="white">
                            <use xlink:href="#path-15"></use>
                        </mask>
                        <g id="Clip-33"></g>
                        <path d="M33.07585,20.52775 C31.33285,21.93875 28.46935,20.90125 26.72635,20.15425 C24.81735,19.28275 22.65935,18.20375 20.62585,19.65625 C20.41835,19.82225 20.37685,20.11275 20.54285,20.32025 C20.62585,20.44475 20.79185,20.48625 20.95785,20.48625 C21.49735,20.40325 22.03685,20.40325 22.57635,20.52775 C22.32735,21.06725 22.20285,21.64825 22.28585,22.22925 C22.41035,22.85175 22.61785,23.59875 23.32335,23.68175 C23.48935,23.68175 23.61385,23.55725 23.61385,23.39125 C23.61385,23.30825 23.61385,23.26675 23.57235,23.18375 C23.28185,22.85175 23.19885,22.35375 23.28185,21.93875 C23.36485,21.56525 23.53085,21.23325 23.65535,20.90125 L24.27785,21.15025 C25.35685,21.60675 26.51885,22.06325 27.63935,22.39525 C28.71835,22.72725 29.79735,22.76875 30.87635,22.51975 C31.87235,22.22925 32.74385,21.68975 33.49085,21.02575 C33.78135,20.73525 33.40785,20.27875 33.07585,20.52775" id="Fill-32" fill="#5DC53A" mask="url(#mask-16)"></path>
                    </g>
                    <g id="Group-37" transform="translate(120.000000, 15.000000)">
                        <mask id="mask-18" fill="white">
                            <use xlink:href="#path-17"></use>
                        </mask>
                        <g id="Clip-36"></g>
                        <path d="M26.9709,22.63085 C24.9789,22.96285 23.4434,20.72185 22.8209,19.10335 C22.7794,19.02035 22.6549,18.97885 22.5719,19.02035 C22.4889,19.06185 22.4474,19.14485 22.4889,19.18635 C22.6134,20.47285 23.1529,21.67635 24.1074,22.54785 C24.8544,23.25335 26.1824,24.08335 27.2199,23.21185 C27.3444,23.08735 27.3859,22.87985 27.2614,22.75535 C27.1784,22.63085 27.0954,22.63085 26.9709,22.63085" id="Fill-35" fill="#5DC53A" mask="url(#mask-18)"></path>
                    </g>
                    <g id="Group-40" transform="translate(122.000000, 15.000000)">
                        <mask id="mask-20" fill="white">
                            <use xlink:href="#path-19"></use>
                        </mask>
                        <g id="Clip-39"></g>
                        <path d="M27.80535,20.9916 L26.93385,20.7011 L26.14535,20.4936 L25.97935,20.8256 L26.35285,21.2406 L26.39435,21.4481 L26.43585,21.5311 L26.43585,21.5311 L26.43585,21.5726 L26.56035,21.8216 L26.76785,21.9876 L26.97535,21.9461 L27.09985,21.7386 L27.43185,21.8631 C27.97135,22.0706 28.34485,21.1576 27.80535,20.9916" id="Fill-38" fill="#5DC53A" mask="url(#mask-20)"></path>
                    </g>
                    <g id="Group-43" transform="translate(124.000000, 12.000000)">
                        <mask id="mask-22" fill="white">
                            <use xlink:href="#path-21"></use>
                        </mask>
                        <g id="Clip-42"></g>
                        <path d="M28.64395,22.22785 C28.64395,21.89585 28.64395,21.52235 28.68545,21.14885 L29.18345,21.27335 C29.30795,21.31485 29.43245,21.19035 29.43245,21.06585 C29.47395,20.94135 29.39095,20.85835 29.30795,20.81685 L28.76845,20.56785 C28.85145,20.31885 29.01745,20.06985 29.26645,19.86235 C29.34945,19.77935 29.34945,19.65485 29.30795,19.57185 C29.22495,19.48885 29.14195,19.48885 29.05895,19.53035 C28.68545,19.65485 28.39495,19.86235 28.22895,20.15285 C27.97995,19.90385 27.77245,19.65485 27.56495,19.36435 C27.27445,19.03235 26.56895,19.40585 26.81795,19.82085 C27.10845,20.31885 27.52345,20.65085 28.02145,20.89985 C28.02145,21.52235 27.93845,22.14485 27.77245,22.76735 C27.60645,22.80885 27.48195,23.05785 27.64795,23.22385 L27.68945,23.30685 C27.77245,23.43135 27.93845,23.47285 28.10445,23.43135 C28.64395,23.22385 28.68545,22.72585 28.64395,22.22785" id="Fill-41" fill="#5DC53A" mask="url(#mask-22)"></path>
                    </g>
                </g>
            </g>
        </g>
    </g>
</svg>