<?xml version="1.0" encoding="UTF-8"?>
<svg width="114px" height="39px" viewBox="0 0 114 39" version="1.1" xmlns="http://www.w3.org/2000/svg" xmlns:xlink="http://www.w3.org/1999/xlink">
    <!-- Generator: Sketch 53.2 (72643) - https://sketchapp.com -->
    <title>Group 4</title>
    <desc>Created with Sketch.</desc>
    <defs>
        <polygon id="path-1" points="0 0 29 0 29 23 0 23"></polygon>
    </defs>
    <g id="Yoga-Fitness" stroke="none" stroke-width="1" fill="none" fill-rule="evenodd">
        <g id="Desktop" transform="translate(-23.000000, -22.000000)">
            <g id="Group-4" transform="translate(23.000000, 22.620000)">
                <g id="Group-3" transform="translate(14.500000, 15.880000) scale(-1, 1) translate(-14.500000, -15.880000) translate(0.000000, 4.380000)">
                    <mask id="mask-2" fill="white">
                        <use xlink:href="#path-1"></use>
                    </mask>
                    <g id="Clip-2"></g>
                    <path d="M23.4704295,18.3866948 C21.3351694,20.5615893 18.2886626,21.277047 16.353265,21.5112895 C17.6447254,19.8085326 19.9001667,16.2328558 19.9001667,12.0000537 C19.9001667,11.6246533 19.8812351,11.2551613 19.8479598,10.8913092 C22.6419754,9.35952088 25.79606,9.24994629 26.5029618,9.24994629 C26.5974615,9.24994629 26.6482973,9.25134283 26.6482973,9.25134283 C26.6482973,9.25134283 26.8242713,14.9701697 23.4704295,18.3866948 M14.5298222,21.5928259 C14.5037715,21.5841244 14.4781427,21.5759063 14.4448147,21.5635523 C13.9695742,21.0359829 10.4501998,16.9571223 10.4501998,12.0000537 C10.4501998,6.68407457 14.5001329,2.37467772 14.5001329,2.37467772 C14.5001329,2.37467772 18.5501187,6.68407457 18.5501187,12.0000537 C18.5501187,17.1009659 14.8313563,21.2637261 14.5298222,21.5928259 M5.53036358,18.3866948 C2.17604723,14.9701697 2.35202122,9.25177253 2.35202122,9.25177253 C2.35202122,9.25177253 2.40285698,9.25037599 2.49735665,9.25037599 C3.20473307,9.25037599 6.35744662,9.3649459 9.1514622,10.8981308 C9.11903067,11.2597807 9.10015183,11.6269093 9.10015183,12 C9.10015183,16.2328021 11.3555404,19.8084788 12.6474753,21.5112358 C10.7120251,21.277047 7.66557093,20.5615893 5.53036358,18.3866948 M7.75875224,5.06929958 C7.75875224,5.06929958 8.88599829,5.58080882 10.2656829,6.59834857 C9.89533068,7.47838294 9.58034937,8.44140396 9.3711001,9.46855834 C8.56421426,9.0674831 7.75289875,8.76314504 6.97032337,8.53948396 C7.21733032,6.5135894 7.75875224,5.06929958 7.75875224,5.06929958 M21.2415663,5.06929958 C21.2415663,5.06929958 21.7824608,6.51219286 22.0295733,8.5371743 C21.2474725,8.76040568 20.4347859,9.06017813 19.6279528,9.46119966 C19.4187035,8.43769776 19.1050405,7.47838294 18.7355848,6.60108793 C20.1143202,5.58354819 21.2415663,5.06929958 21.2415663,5.06929958 M27.9974488,9.20821126 C27.9749313,8.48448182 27.4011833,7.90191023 26.690221,7.87714852 L26.5030146,7.87483886 C26.066481,7.87483886 24.8546493,7.91791672 23.3561545,8.2149498 C23.0879484,6.15236923 22.5447336,4.68793703 22.499804,4.57105746 C22.3665447,4.22133189 22.0983386,3.94266866 21.7581504,3.79914743 C21.5926178,3.72953533 21.4170656,3.69467557 21.2415663,3.69467557 C21.0562056,3.69467557 20.8712668,3.73361752 20.698035,3.81107172 C20.5990529,3.85554612 19.508668,4.35604418 18.1482841,5.3314192 C16.9562805,3.02132896 15.5770178,1.53213504 15.4757681,1.42444041 C15.2206929,1.15308215 14.868323,1 14.5001856,1 C14.132101,1 13.7797311,1.15308215 13.5250777,1.42395699 C13.4237753,1.53165163 12.0427196,3.0231552 10.8502941,5.33550139 C9.49307428,4.36286574 8.40142382,3.85500898 8.30281088,3.8105883 C8.1296318,3.73313411 7.94458753,3.69419216 7.75922685,3.69419216 C7.5837802,3.69419216 7.40828082,3.7289982 7.24264273,3.79871772 C6.9025072,3.94218524 6.63472299,4.22133189 6.50104182,4.57057405 C6.45653416,4.68745361 5.91331927,6.1514024 5.64516591,8.21446639 C4.14577469,7.91700359 2.93441761,7.87483886 2.49788399,7.87483886 L2.30978113,7.87714852 C1.59929339,7.90191023 1.0250708,8.48448182 1.0025533,9.20821126 C0.99448497,9.46581898 0.850889771,15.5650953 4.57513647,19.358847 C7.9775464,22.8244658 13.3168304,23 14.3526881,23 L14.4912735,22.9981738 C14.493963,22.9981738 14.4966524,23 14.4993946,23 C14.502084,23 14.5047208,22.9981738 14.5075157,22.9981738 L14.6461011,23 C15.6820115,23 21.0212428,22.8244658 24.4236,19.358847 C28.1490596,15.565525 28.0055171,9.46624868 27.9974488,9.20821126" id="Fill-1" stroke="#EC7C88" fill="#E9707D" stroke-linecap="round" mask="url(#mask-2)"></path>
                </g>
                <path d="M36.617,25.515 C35.5009944,25.515 34.6100033,25.1100041 33.944,24.3 C33.2779967,23.489996 32.945,22.4280066 32.945,21.114 C32.945,19.6739928 33.2779967,18.3105064 33.944,17.0235 C34.6100033,15.7364936 35.4964945,14.7015039 36.6035,13.9185 C37.7105055,13.1354961 38.8849938,12.744 40.127,12.744 C40.523002,12.744 40.7884993,12.8204992 40.9235,12.9735 C41.0585007,13.1265008 41.1709996,13.400998 41.261,13.797 C41.6390019,13.7249996 42.0349979,13.689 42.449,13.689 C43.3310044,13.689 43.772,14.0039969 43.772,14.634 C43.772,15.0120019 43.6370014,15.9119929 43.367,17.334 C42.9529979,19.4040104 42.746,20.843996 42.746,21.654 C42.746,21.9240014 42.8134993,22.1399992 42.9485,22.302 C43.0835007,22.4640008 43.2589989,22.545 43.475,22.545 C43.8170017,22.545 44.2309976,22.3245022 44.717,21.8835 C45.2030024,21.4424978 45.8599959,20.727005 46.688,19.737 C46.9040011,19.4849987 47.1469987,19.359 47.417,19.359 C47.6510012,19.359 47.8354993,19.4669989 47.9705,19.683 C48.1055007,19.8990011 48.173,20.1959981 48.173,20.574 C48.173,21.2940036 48.0020017,21.851998 47.66,22.248 C46.9219963,23.1660046 46.1390041,23.9399969 45.311,24.57 C44.4829959,25.2000032 43.6820039,25.515 42.908,25.515 C42.313997,25.515 41.7695025,25.312502 41.2745,24.9075 C40.7794975,24.502498 40.4060013,23.9490035 40.154,23.247 C39.2179953,24.7590076 38.0390071,25.515 36.617,25.515 Z M37.589,22.788 C37.985002,22.788 38.3629982,22.5540023 38.723,22.086 C39.0830018,21.6179977 39.3439992,20.9970039 39.506,20.223 L40.505,15.255 C39.7489962,15.2730001 39.0515032,15.5564973 38.4125,16.1055 C37.7734968,16.6545027 37.2650019,17.3789955 36.887,18.279 C36.5089981,19.1790045 36.32,20.132995 36.32,21.141 C36.32,21.6990028 36.4324989,22.1129987 36.6575,22.383 C36.8825011,22.6530014 37.192998,22.788 37.589,22.788 Z M56.219,19.359 C56.4530012,19.359 56.6374993,19.4669989 56.7725,19.683 C56.9075007,19.8990011 56.975,20.1959981 56.975,20.574 C56.975,21.2940036 56.8040017,21.851998 56.462,22.248 C55.6879961,23.2020048 54.8465045,23.9849969 53.9375,24.597 C53.0284955,25.2090031 51.9980058,25.515 50.846,25.515 C49.2619921,25.515 48.0875038,24.7950072 47.3225,23.355 C46.5574962,21.9149928 46.175,20.0520114 46.175,17.766 C46.175,15.569989 46.4584972,13.068014 47.0255,10.26 C47.5925028,7.45198596 48.4294945,5.04001008 49.5365,3.024 C50.6435055,1.00798992 51.9619924,4.40536496e-13 53.492,4.40536496e-13 C54.3560043,4.40536496e-13 55.0354975,0.400495995 55.5305,1.2015 C56.0255025,2.00250401 56.273,3.14999253 56.273,4.644 C56.273,6.78601071 55.6790059,9.26998587 54.491,12.096 C53.3029941,14.9220141 51.6920102,17.7209861 49.658,20.493 C49.7840006,21.2310037 49.9909986,21.7574984 50.279,22.0725 C50.5670014,22.3875016 50.9449977,22.545 51.413,22.545 C52.1510037,22.545 52.7989972,22.3335021 53.357,21.9105 C53.9150028,21.4874979 54.6259957,20.7630051 55.49,19.737 C55.7060011,19.4849987 55.9489987,19.359 56.219,19.359 Z M52.898,2.673 C52.4839979,2.673 52.0160026,3.41999253 51.494,4.914 C50.9719974,6.40800747 50.513002,8.26198893 50.117,10.476 C49.720998,12.6900111 49.5050002,14.8139898 49.469,16.848 C50.7470064,14.7419895 51.7639962,12.6315106 52.52,10.5165 C53.2760038,8.40148943 53.654,6.47100873 53.654,4.725 C53.654,3.35699316 53.4020025,2.673 52.898,2.673 Z M58.325,11.016 C57.5689962,11.016 57.0020019,10.8405018 56.624,10.4895 C56.2459981,10.1384982 56.057,9.64800315 56.057,9.018 C56.057,8.38799685 56.3044975,7.86150212 56.7995,7.4385 C57.2945025,7.01549789 57.9109963,6.804 58.649,6.804 C59.3150033,6.804 59.8549979,6.96599838 60.269,7.29 C60.6830021,7.61400162 60.89,8.07299703 60.89,8.667 C60.89,9.3870036 60.6560023,9.95849789 60.188,10.3815 C59.7199977,10.8045021 59.0990039,11.016 58.325,11.016 Z M58.109,25.515 C56.9389942,25.515 56.0885027,25.1010041 55.5575,24.273 C55.0264973,23.4449959 54.761,22.3470068 54.761,20.979 C54.761,20.168996 54.864499,19.1295063 55.0715,17.8605 C55.278501,16.5914937 55.5439984,15.4080055 55.868,14.31 C56.0300008,13.7339971 56.2459987,13.3380011 56.516,13.122 C56.7860014,12.9059989 57.217997,12.798 57.812,12.798 C58.7300046,12.798 59.189,13.1039969 59.189,13.716 C59.189,14.1660023 59.0180017,15.2099918 58.676,16.848 C58.2439978,18.8280099 58.028,20.1689965 58.028,20.871 C58.028,21.4110027 58.0999993,21.8249986 58.244,22.113 C58.3880007,22.4010014 58.6309983,22.545 58.973,22.545 C59.2970016,22.545 59.7019976,22.3200023 60.188,21.87 C60.6740024,21.4199978 61.321996,20.7090049 62.132,19.737 C62.3480011,19.4849987 62.5909987,19.359 62.861,19.359 C63.0950012,19.359 63.2794993,19.4669989 63.4145,19.683 C63.5495007,19.8990011 63.617,20.1959981 63.617,20.574 C63.617,21.2940036 63.4460017,21.851998 63.104,22.248 C61.3219911,24.4260109 59.6570077,25.515 58.109,25.515 Z M75.254,19.413 C75.4880012,19.413 75.6724993,19.5254989 75.8075,19.7505 C75.9425007,19.9755011 76.01,20.2589983 76.01,20.601 C76.01,21.0150021 75.9470006,21.3389988 75.821,21.573 C75.6949994,21.8070012 75.4970014,22.0139991 75.227,22.194 C73.6789923,23.2380052 72.5450036,24.0119975 71.825,24.516 L70.097,25.677 C69.4129966,29.4030186 68.5175055,32.3324893 67.4105,34.4655 C66.3034945,36.5985107 64.8950086,37.665 63.185,37.665 C62.2669954,37.665 61.5200029,37.3815028 60.944,36.8145 C60.3679971,36.2474972 60.08,35.5050046 60.08,34.587 C60.08,33.3089936 60.583995,31.9365073 61.592,30.4695 C62.600005,29.0024927 64.4899861,27.1980107 67.262,25.056 L67.424,24.003 C67.1179985,24.4890024 66.7175025,24.8624987 66.2225,25.1235 C65.7274975,25.3845013 65.2370024,25.515 64.751,25.515 C63.6349944,25.515 62.7440033,25.1100041 62.078,24.3 C61.4119967,23.489996 61.079,22.4280066 61.079,21.114 C61.079,19.6739928 61.4119967,18.3105064 62.078,17.0235 C62.7440033,15.7364936 63.6304945,14.7015039 64.7375,13.9185 C65.8445055,13.1354961 67.0189938,12.744 68.261,12.744 C68.657002,12.744 68.9224993,12.8204992 69.0575,12.9735 C69.1925007,13.1265008 69.3049996,13.400998 69.395,13.797 C69.7370017,13.7249996 70.1329978,13.689 70.583,13.689 C71.0330023,13.689 71.3524991,13.7564993 71.5415,13.8915 C71.7305009,14.0265007 71.825,14.291998 71.825,14.688 C71.825,14.9040011 71.8160001,15.0749994 71.798,15.201 C71.7259996,15.7590028 71.5010019,17.1719887 71.123,19.44 C71.0509996,19.8720022 70.9745004,20.3444974 70.8935,20.8575 C70.8124996,21.3705026 70.7270005,21.9149971 70.637,22.491 C72.0230069,21.4109946 73.3549936,20.4570041 74.633,19.629 C74.8670012,19.4849993 75.0739991,19.413 75.254,19.413 Z M65.723,22.788 C66.1370021,22.788 66.5329981,22.5360025 66.911,22.032 C67.2890019,21.5279975 67.5589992,20.8080047 67.721,19.872 L68.585,15.255 C67.8469963,15.2730001 67.1630032,15.5564973 66.533,16.1055 C65.9029969,16.6545027 65.3990019,17.3789955 65.021,18.279 C64.6429981,19.1790045 64.454,20.132995 64.454,21.141 C64.454,21.6990028 64.5664989,22.1129987 64.7915,22.383 C65.0165011,22.6530014 65.326998,22.788 65.723,22.788 Z M63.482,35.046 C63.9320023,35.046 64.4404972,34.5060054 65.0075,33.426 C65.5745028,32.3459946 66.1189974,30.6270118 66.641,28.269 C65.2549931,29.4570059 64.2560031,30.5279952 63.644,31.482 C63.0319969,32.4360048 62.726,33.2729964 62.726,33.993 C62.726,34.2990015 62.7844994,34.550999 62.9015,34.749 C63.0185006,34.947001 63.2119987,35.046 63.482,35.046 Z M76.28,25.515 C75.5959966,25.515 75.1145014,25.1550036 74.8355,24.435 C74.5564986,23.7149964 74.417,22.5630079 74.417,20.979 C74.417,18.6389883 74.7499967,16.4160105 75.416,14.31 C75.5780008,13.7879974 75.8434982,13.4055012 76.2125,13.1625 C76.5815018,12.9194988 77.0989967,12.798 77.765,12.798 C78.1250018,12.798 78.3769993,12.8429996 78.521,12.933 C78.6650007,13.0230005 78.737,13.1939987 78.737,13.446 C78.737,13.7340014 78.6020014,14.381995 78.332,15.39 C78.1519991,16.1100036 78.0080005,16.7399973 77.9,17.28 C77.7919995,17.8200027 77.7020004,18.485996 77.63,19.278 C78.224003,17.7299923 78.8899963,16.4700049 79.628,15.498 C80.3660037,14.5259951 81.0904964,13.8330021 81.8015,13.419 C82.5125036,13.0049979 83.164997,12.798 83.759,12.798 C84.9290059,12.798 85.514,13.3829942 85.514,14.553 C85.514,15.2550035 85.316002,16.5239908 84.92,18.36 C84.5779983,19.9260078 84.407,20.9609975 84.407,21.465 C84.407,22.1850036 84.6679974,22.545 85.19,22.545 C85.5500018,22.545 85.9774975,22.3245022 86.4725,21.8835 C86.9675025,21.4424978 87.6289959,20.727005 88.457,19.737 C88.6730011,19.4849987 88.9159987,19.359 89.186,19.359 C89.4200012,19.359 89.6044993,19.4669989 89.7395,19.683 C89.8745007,19.8990011 89.942,20.1959981 89.942,20.574 C89.942,21.2940036 89.7710017,21.851998 89.429,22.248 C88.6549961,23.2020048 87.8225045,23.9849969 86.9315,24.597 C86.0404955,25.2090031 85.0280057,25.515 83.894,25.515 C82.9759954,25.515 82.2830023,25.2495027 81.815,24.7185 C81.3469977,24.1874973 81.113,23.418005 81.113,22.41 C81.113,21.9059975 81.2389987,21.0060065 81.491,19.71 C81.7250012,18.5759943 81.842,17.7930022 81.842,17.361 C81.842,17.0729986 81.743001,16.929 81.545,16.929 C81.3109988,16.929 80.9825021,17.230497 80.5595,17.8335 C80.1364979,18.436503 79.7045022,19.2329951 79.2635,20.223 C78.8224978,21.213005 78.4670014,22.2569945 78.197,23.355 C77.998999,24.2010042 77.7695013,24.7724985 77.5085,25.0695 C77.2474987,25.3665015 76.8380028,25.515 76.28,25.515 Z M99.797,19.359 C100.031001,19.359 100.215499,19.4669989 100.3505,19.683 C100.485501,19.8990011 100.553,20.1959981 100.553,20.574 C100.553,21.2940036 100.382002,21.851998 100.04,22.248 C99.3739967,23.0580041 98.4335061,23.8049966 97.2185,24.489 C96.0034939,25.1730034 94.7030069,25.515 93.317,25.515 C91.4269906,25.515 89.9600052,25.0020051 88.916,23.976 C87.8719948,22.9499949 87.35,21.5460089 87.35,19.764 C87.35,18.5219938 87.6109974,17.3655054 88.133,16.2945 C88.6550026,15.2234946 89.3794954,14.3730032 90.3065,13.743 C91.2335046,13.1129969 92.2819942,12.798 93.452,12.798 C94.4960052,12.798 95.3329969,13.1084969 95.963,13.7295 C96.5930032,14.3505031 96.908,15.1919947 96.908,16.254 C96.908,17.4960062 96.4625045,18.5624955 95.5715,19.4535 C94.6804955,20.3445045 93.1730106,21.0509974 91.049,21.573 C91.4990023,22.4010041 92.3539937,22.815 93.614,22.815 C94.4240041,22.815 95.3464948,22.5315028 96.3815,21.9645 C97.4165052,21.3974972 98.3119962,20.6550046 99.068,19.737 C99.2840011,19.4849987 99.5269987,19.359 99.797,19.359 Z M92.993,15.444 C92.3269967,15.444 91.7645023,15.8309961 91.3055,16.605 C90.8464977,17.3790039 90.617,18.3149945 90.617,19.413 L90.617,19.467 C91.6790053,19.2149987 92.5159969,18.8370025 93.128,18.333 C93.7400031,17.8289975 94.046,17.2440033 94.046,16.578 C94.046,16.2359983 93.9515009,15.961501 93.7625,15.7545 C93.5734991,15.547499 93.3170016,15.444 92.993,15.444 Z M108.194,19.359 C108.392001,20.8350074 108.679998,22.2929928 109.058,23.733 C109.13,23.9670012 109.166,24.2099987 109.166,24.462 C109.166,25.2720041 108.671005,25.677 107.681,25.677 C107.122997,25.677 106.695501,25.5240015 106.3985,25.218 C106.101499,24.9119985 105.827001,24.3360042 105.575,23.49 L105.548,23.382 C104.863997,24.2280042 104.247503,24.7949986 103.6985,25.083 C103.149497,25.3710014 102.515004,25.515 101.795,25.515 C100.696995,25.515 99.7925036,25.1055041 99.0815,24.2865 C98.3704964,23.4674959 98.015,22.4010066 98.015,21.087 C98.015,19.6469928 98.3209969,18.3150061 98.933,17.091 C99.5450031,15.8669939 100.381995,14.8635039 101.444,14.0805 C102.506005,13.2974961 103.693993,12.8250008 105.008,12.663 C105.350002,9.26098299 106.002495,6.3000126 106.9655,3.78 C107.928505,1.2599874 109.210992,4.40536496e-13 110.813,4.40536496e-13 C111.587004,4.40536496e-13 112.230497,0.35099649 112.7435,1.053 C113.256503,1.75500351 113.513,2.81699289 113.513,4.239 C113.513,6.2190099 113.027005,8.53198677 112.055,11.178 C111.082995,13.8240132 109.796008,16.550986 108.194,19.359 Z M110.516,2.646 C109.993997,2.646 109.503502,3.97798668 109.0445,6.642 C108.585498,9.30601332 108.275001,12.2039843 108.113,15.336 C110.11101,11.0159784 111.11,7.5060135 111.11,4.806 C111.11,4.12199658 111.051501,3.59100189 110.9345,3.213 C110.817499,2.83499811 110.678001,2.646 110.516,2.646 Z M102.74,22.788 C103.100002,22.788 103.446498,22.6530014 103.7795,22.383 C104.112502,22.1129987 104.539997,21.5910039 105.062,20.817 C104.881999,19.5029934 104.792,18.144007 104.792,16.74 C104.792,16.1819972 104.801,15.7500015 104.819,15.444 C103.828995,15.7320014 103.010003,16.3889949 102.362,17.415 C101.713997,18.4410051 101.39,19.5749938 101.39,20.817 C101.39,22.1310066 101.839996,22.788 102.74,22.788 Z" id="aligned" fill="#E9707D" fill-rule="nonzero"></path>
            </g>
        </g>
    </g>
</svg>